<svg xmlns="http://www.w3.org/2000/svg" xmlns:xlink="http://www.w3.org/1999/xlink" width="128" viewBox="0 0 96 95.999999" height="128" preserveAspectRatio="xMidYMid meet"><defs><clipPath id="561acd3bce"><path d="M 5 4.191406 L 90 4.191406 L 90 89 L 5 89 Z M 5 4.191406 " clip-rule="nonzero"></path></clipPath><clipPath id="ae0dd9eb4e"><path d="M 43 4.191406 L 90 4.191406 L 90 86 L 43 86 Z M 43 4.191406 " clip-rule="nonzero"></path></clipPath></defs><path fill="#c8c2b5" d="M 66.636719 56.007812 C 66.636719 57.734375 66.40625 59.429688 65.945312 61.089844 C 65.484375 62.753906 64.808594 64.324219 63.921875 65.804688 C 63.03125 67.285156 61.960938 68.621094 60.710938 69.8125 C 59.460938 71.003906 58.074219 72.007812 56.550781 72.824219 C 53.726562 74.347656 50.710938 75.105469 47.503906 75.101562 C 46.363281 75.097656 45.234375 74.996094 44.113281 74.792969 C 42.992188 74.589844 41.898438 74.289062 40.832031 73.890625 C 39.765625 73.496094 38.742188 73.003906 37.765625 72.425781 C 36.785156 71.847656 35.867188 71.183594 35.003906 70.441406 C 34.144531 69.695312 33.355469 68.882812 32.640625 68 C 31.925781 67.113281 31.296875 66.175781 30.75 65.179688 C 30.203125 64.183594 29.746094 63.144531 29.386719 62.066406 C 29.023438 60.992188 28.761719 59.890625 28.597656 58.765625 C 28.433594 57.640625 28.371094 56.511719 28.40625 55.375 C 28.445312 54.242188 28.582031 53.117188 28.820312 52.007812 C 29.0625 50.898438 29.394531 49.816406 29.828125 48.765625 C 30.261719 47.714844 30.78125 46.707031 31.394531 45.75 C 32.003906 44.792969 32.699219 43.894531 33.46875 43.0625 C 34.242188 42.226562 35.082031 41.464844 35.992188 40.78125 C 36.898438 40.097656 37.859375 39.496094 38.875 38.984375 C 39.890625 38.46875 40.945312 38.050781 42.035156 37.722656 L 42.035156 23.28125 C 42.035156 22.921875 41.964844 22.570312 41.828125 22.238281 C 41.6875 21.902344 41.492188 21.609375 41.234375 21.351562 C 40.976562 21.097656 40.683594 20.902344 40.347656 20.761719 C 40.011719 20.625 39.664062 20.554688 39.300781 20.554688 C 39.121094 20.554688 38.945312 20.519531 38.777344 20.449219 C 38.609375 20.382812 38.464844 20.28125 38.335938 20.15625 C 38.207031 20.027344 38.109375 19.878906 38.039062 19.710938 C 37.96875 19.546875 37.933594 19.371094 37.933594 19.191406 C 37.933594 19.011719 37.96875 18.835938 38.039062 18.667969 C 38.109375 18.5 38.207031 18.355469 38.335938 18.226562 C 38.464844 18.097656 38.609375 18 38.777344 17.929688 C 38.945312 17.863281 39.121094 17.828125 39.300781 17.828125 L 55.703125 17.828125 C 55.882812 17.828125 56.058594 17.863281 56.226562 17.929688 C 56.394531 18 56.539062 18.097656 56.667969 18.226562 C 56.796875 18.355469 56.894531 18.5 56.964844 18.667969 C 57.035156 18.835938 57.070312 19.011719 57.070312 19.191406 C 57.070312 19.371094 57.035156 19.546875 56.964844 19.710938 C 56.894531 19.878906 56.796875 20.027344 56.667969 20.15625 C 56.539062 20.28125 56.394531 20.382812 56.226562 20.449219 C 56.058594 20.519531 55.882812 20.554688 55.703125 20.554688 C 55.339844 20.554688 54.992188 20.625 54.65625 20.761719 C 54.320312 20.902344 54.027344 21.097656 53.769531 21.351562 C 53.511719 21.609375 53.316406 21.902344 53.175781 22.238281 C 53.039062 22.570312 52.96875 22.921875 52.96875 23.28125 L 52.96875 37.722656 C 53.949219 38.015625 54.902344 38.382812 55.820312 38.824219 C 56.742188 39.269531 57.625 39.785156 58.460938 40.367188 C 59.300781 40.953125 60.085938 41.601562 60.820312 42.3125 C 61.554688 43.023438 62.230469 43.785156 62.839844 44.605469 C 63.453125 45.421875 63.996094 46.285156 64.46875 47.191406 C 64.941406 48.09375 65.339844 49.03125 65.660156 50 C 65.984375 50.96875 66.226562 51.957031 66.390625 52.964844 C 66.554688 53.972656 66.636719 54.988281 66.636719 56.007812 Z M 66.636719 56.007812 " fill-opacity="1" fill-rule="nonzero"></path><path fill="#e7e5e0" d="M 66.636719 56.007812 C 66.636719 57.734375 66.40625 59.429688 65.945312 61.089844 C 65.484375 62.753906 64.808594 64.324219 63.921875 65.804688 C 63.03125 67.285156 61.960938 68.621094 60.710938 69.8125 C 59.460938 71.003906 58.074219 72.007812 56.550781 72.824219 C 49.960938 58.734375 45.371094 39.535156 43.894531 17.828125 L 55.703125 17.828125 C 55.882812 17.828125 56.058594 17.863281 56.226562 17.929688 C 56.394531 18 56.539062 18.097656 56.667969 18.226562 C 56.796875 18.355469 56.894531 18.5 56.964844 18.667969 C 57.035156 18.835938 57.070312 19.011719 57.070312 19.191406 C 57.070312 19.371094 57.035156 19.546875 56.964844 19.710938 C 56.894531 19.878906 56.796875 20.027344 56.667969 20.15625 C 56.539062 20.28125 56.394531 20.382812 56.226562 20.449219 C 56.058594 20.519531 55.882812 20.554688 55.703125 20.554688 C 55.339844 20.554688 54.992188 20.625 54.65625 20.761719 C 54.320312 20.902344 54.027344 21.097656 53.769531 21.351562 C 53.511719 21.609375 53.316406 21.902344 53.175781 22.238281 C 53.039062 22.570312 52.96875 22.921875 52.96875 23.28125 L 52.96875 37.722656 C 53.949219 38.015625 54.902344 38.382812 55.820312 38.824219 C 56.742188 39.269531 57.625 39.785156 58.460938 40.367188 C 59.300781 40.953125 60.085938 41.601562 60.820312 42.3125 C 61.554688 43.023438 62.230469 43.785156 62.839844 44.605469 C 63.453125 45.421875 63.996094 46.285156 64.46875 47.191406 C 64.941406 48.09375 65.339844 49.03125 65.660156 50 C 65.984375 50.96875 66.226562 51.957031 66.390625 52.964844 C 66.554688 53.972656 66.636719 54.988281 66.636719 56.007812 Z M 66.636719 56.007812 " fill-opacity="1" fill-rule="nonzero"></path><path fill="#006837" d="M 66.636719 56.007812 C 66.636719 57.734375 66.40625 59.429688 65.945312 61.089844 C 65.484375 62.753906 64.808594 64.324219 63.921875 65.804688 C 63.03125 67.285156 61.960938 68.621094 60.710938 69.8125 C 59.460938 71.003906 58.074219 72.007812 56.550781 72.824219 C 53.726562 74.347656 50.710938 75.105469 47.503906 75.101562 C 46.875 75.101562 46.25 75.070312 45.625 75.007812 C 45.003906 74.945312 44.382812 74.855469 43.769531 74.734375 C 43.15625 74.609375 42.546875 74.460938 41.949219 74.277344 C 41.347656 74.097656 40.757812 73.886719 40.179688 73.648438 C 39.601562 73.40625 39.035156 73.140625 38.480469 72.84375 C 37.929688 72.550781 37.394531 72.230469 36.871094 71.882812 C 36.351562 71.535156 35.847656 71.164062 35.363281 70.765625 C 34.878906 70.371094 34.414062 69.949219 33.972656 69.507812 C 33.527344 69.066406 33.109375 68.601562 32.710938 68.121094 C 32.3125 67.636719 31.941406 67.136719 31.59375 66.617188 C 31.246094 66.09375 30.921875 65.558594 30.628906 65.007812 C 30.332031 64.457031 30.0625 63.890625 29.824219 63.316406 C 29.585938 62.738281 29.375 62.148438 29.191406 61.550781 C 29.007812 60.953125 28.859375 60.347656 28.734375 59.734375 C 28.613281 59.121094 28.519531 58.503906 28.460938 57.878906 C 28.398438 57.257812 28.367188 56.632812 28.367188 56.007812 C 28.363281 54.628906 28.515625 53.265625 28.820312 51.917969 L 66.183594 51.917969 C 66.488281 53.265625 66.640625 54.628906 66.636719 56.007812 Z M 66.636719 56.007812 " fill-opacity="1" fill-rule="nonzero"></path><path fill="#009245" d="M 66.636719 56.007812 C 66.636719 57.734375 66.40625 59.429688 65.945312 61.089844 C 65.484375 62.753906 64.808594 64.324219 63.921875 65.804688 C 63.03125 67.285156 61.960938 68.621094 60.710938 69.8125 C 59.460938 71.003906 58.074219 72.007812 56.550781 72.824219 C 53.46875 66.078125 51.019531 59.109375 49.210938 51.917969 L 66.183594 51.917969 C 66.488281 53.265625 66.640625 54.628906 66.636719 56.007812 Z M 66.636719 56.007812 " fill-opacity="1" fill-rule="nonzero"></path><path fill="#009245" d="M 40.667969 62.828125 C 40.667969 63.1875 40.597656 63.535156 40.460938 63.871094 C 40.320312 64.203125 40.125 64.5 39.867188 64.753906 C 39.613281 65.011719 39.316406 65.207031 38.980469 65.347656 C 38.644531 65.484375 38.296875 65.554688 37.933594 65.554688 C 37.574219 65.554688 37.222656 65.484375 36.890625 65.347656 C 36.554688 65.207031 36.257812 65.011719 36.003906 64.753906 C 35.746094 64.5 35.546875 64.203125 35.410156 63.871094 C 35.269531 63.535156 35.203125 63.1875 35.203125 62.828125 L 35.203125 58.734375 C 35.203125 58.375 35.269531 58.027344 35.410156 57.691406 C 35.546875 57.359375 35.746094 57.0625 36.003906 56.808594 C 36.257812 56.550781 36.554688 56.355469 36.890625 56.214844 C 37.222656 56.078125 37.574219 56.007812 37.933594 56.007812 C 38.296875 56.007812 38.644531 56.078125 38.980469 56.214844 C 39.316406 56.355469 39.613281 56.550781 39.867188 56.808594 C 40.125 57.0625 40.320312 57.359375 40.460938 57.691406 C 40.597656 58.027344 40.667969 58.375 40.667969 58.734375 Z M 40.667969 62.828125 " fill-opacity="1" fill-rule="nonzero"></path><path fill="#ffffff" d="M 48.867188 32.828125 C 48.6875 32.828125 48.511719 32.792969 48.347656 32.722656 C 48.179688 32.652344 48.03125 32.554688 47.902344 32.429688 C 47.773438 32.300781 47.675781 32.152344 47.605469 31.984375 C 47.535156 31.816406 47.503906 31.644531 47.503906 31.464844 L 47.503906 30.101562 C 47.503906 29.917969 47.535156 29.746094 47.605469 29.578125 C 47.675781 29.410156 47.773438 29.261719 47.902344 29.136719 C 48.03125 29.007812 48.179688 28.910156 48.347656 28.839844 C 48.511719 28.769531 48.6875 28.734375 48.867188 28.734375 C 49.050781 28.734375 49.222656 28.769531 49.390625 28.839844 C 49.558594 28.910156 49.707031 29.007812 49.835938 29.136719 C 49.964844 29.261719 50.0625 29.410156 50.132812 29.578125 C 50.199219 29.746094 50.234375 29.917969 50.234375 30.101562 L 50.234375 31.464844 C 50.234375 31.644531 50.199219 31.816406 50.132812 31.984375 C 50.0625 32.152344 49.964844 32.300781 49.835938 32.429688 C 49.707031 32.554688 49.558594 32.652344 49.390625 32.722656 C 49.222656 32.792969 49.050781 32.828125 48.867188 32.828125 Z M 48.867188 32.828125 " fill-opacity="1" fill-rule="nonzero"></path><path fill="#75a534" d="M 22.902344 43.734375 C 22.902344 44.097656 22.832031 44.445312 22.691406 44.78125 C 22.554688 45.113281 22.355469 45.410156 22.101562 45.664062 C 21.84375 45.921875 21.546875 46.117188 21.214844 46.257812 C 20.878906 46.394531 20.53125 46.464844 20.167969 46.464844 C 19.804688 46.464844 19.457031 46.394531 19.121094 46.257812 C 18.785156 46.117188 18.492188 45.921875 18.234375 45.664062 C 17.976562 45.410156 17.78125 45.113281 17.640625 44.78125 C 17.503906 44.445312 17.433594 44.097656 17.433594 43.734375 C 17.433594 43.375 17.503906 43.027344 17.640625 42.691406 C 17.78125 42.359375 17.976562 42.0625 18.234375 41.808594 C 18.492188 41.550781 18.785156 41.355469 19.121094 41.214844 C 19.457031 41.078125 19.804688 41.007812 20.167969 41.007812 C 20.53125 41.007812 20.878906 41.078125 21.214844 41.214844 C 21.546875 41.355469 21.84375 41.550781 22.101562 41.808594 C 22.355469 42.0625 22.554688 42.359375 22.691406 42.691406 C 22.832031 43.027344 22.902344 43.375 22.902344 43.734375 Z M 22.902344 43.734375 " fill-opacity="1" fill-rule="nonzero"></path><path fill="#8cc63f" d="M 69.371094 32.828125 C 69.371094 33.1875 69.300781 33.535156 69.160156 33.871094 C 69.023438 34.203125 68.824219 34.5 68.570312 34.753906 C 68.3125 35.011719 68.015625 35.207031 67.683594 35.347656 C 67.347656 35.484375 67 35.554688 66.636719 35.554688 C 66.273438 35.554688 65.925781 35.484375 65.589844 35.347656 C 65.253906 35.207031 64.960938 35.011719 64.703125 34.753906 C 64.445312 34.5 64.25 34.203125 64.109375 33.871094 C 63.972656 33.535156 63.902344 33.1875 63.902344 32.828125 C 63.902344 30.101562 66.636719 27.371094 66.636719 27.371094 C 66.636719 27.371094 69.371094 30.101562 69.371094 32.828125 Z M 69.371094 32.828125 " fill-opacity="1" fill-rule="nonzero"></path><path fill="#75a534" d="M 77.570312 51.917969 C 77.570312 52.28125 77.5 52.628906 77.363281 52.960938 C 77.222656 53.296875 77.027344 53.589844 76.769531 53.847656 C 76.511719 54.101562 76.21875 54.300781 75.882812 54.4375 C 75.546875 54.578125 75.199219 54.644531 74.835938 54.644531 C 74.472656 54.644531 74.125 54.578125 73.789062 54.4375 C 73.457031 54.300781 73.160156 54.101562 72.902344 53.847656 C 72.648438 53.589844 72.449219 53.296875 72.3125 52.960938 C 72.171875 52.628906 72.101562 52.28125 72.101562 51.917969 C 72.101562 51.554688 72.171875 51.207031 72.3125 50.875 C 72.449219 50.539062 72.648438 50.246094 72.902344 49.988281 C 73.160156 49.734375 73.457031 49.535156 73.789062 49.398438 C 74.125 49.261719 74.472656 49.191406 74.835938 49.191406 C 75.199219 49.191406 75.546875 49.261719 75.882812 49.398438 C 76.21875 49.535156 76.511719 49.734375 76.769531 49.988281 C 77.027344 50.246094 77.222656 50.539062 77.363281 50.875 C 77.5 51.207031 77.570312 51.554688 77.570312 51.917969 Z M 77.570312 51.917969 " fill-opacity="1" fill-rule="nonzero"></path><g clip-path="url(#561acd3bce)"><path fill="#b50b38" d="M 47.503906 4.191406 C 46.132812 4.191406 44.765625 4.257812 43.402344 4.394531 C 42.496094 4.484375 41.597656 4.601562 40.699219 4.75 C 39.804688 4.898438 38.910156 5.074219 38.027344 5.277344 C 37.140625 5.480469 36.261719 5.714844 35.390625 5.976562 C 34.523438 6.234375 33.660156 6.523438 32.808594 6.839844 C 31.957031 7.15625 31.117188 7.5 30.285156 7.871094 C 29.457031 8.242188 28.640625 8.636719 27.835938 9.0625 C 27.03125 9.484375 26.242188 9.933594 25.46875 10.40625 C 24.691406 10.878906 23.933594 11.378906 23.191406 11.898438 C 22.449219 12.421875 21.722656 12.96875 21.015625 13.539062 C 20.308594 14.105469 19.617188 14.699219 18.949219 15.3125 C 18.28125 15.925781 17.628906 16.558594 17.003906 17.214844 C 16.375 17.867188 15.765625 18.542969 15.183594 19.238281 C 14.597656 19.933594 14.035156 20.644531 13.496094 21.375 C 12.957031 22.105469 12.441406 22.851562 11.953125 23.613281 C 11.460938 24.378906 10.996094 25.15625 10.554688 25.949219 C 10.117188 26.742188 9.703125 27.550781 9.3125 28.371094 C 8.925781 29.191406 8.5625 30.023438 8.230469 30.863281 C 7.894531 31.707031 7.589844 32.5625 7.308594 33.425781 C 7.027344 34.285156 6.777344 35.15625 6.554688 36.039062 C 6.332031 36.917969 6.136719 37.800781 5.972656 38.691406 C 5.804688 39.585938 5.667969 40.480469 5.5625 41.382812 C 5.453125 42.28125 5.375 43.183594 5.324219 44.089844 C 5.273438 44.996094 5.253906 45.902344 5.261719 46.808594 C 5.273438 47.714844 5.308594 48.621094 5.378906 49.523438 C 5.445312 50.429688 5.542969 51.332031 5.667969 52.230469 C 5.792969 53.128906 5.949219 54.019531 6.128906 54.910156 C 6.3125 55.796875 6.527344 56.679688 6.765625 57.554688 C 7.007812 58.425781 7.273438 59.292969 7.570312 60.152344 C 7.867188 61.007812 8.191406 61.855469 8.542969 62.691406 C 8.894531 63.527344 9.269531 64.351562 9.675781 65.164062 C 10.078125 65.976562 10.507812 66.773438 10.964844 67.558594 C 11.421875 68.34375 11.902344 69.113281 12.40625 69.867188 C 12.910156 70.621094 13.441406 71.359375 13.996094 72.078125 C 14.546875 72.796875 15.125 73.496094 15.722656 74.179688 C 16.320312 74.863281 16.941406 75.527344 17.582031 76.167969 C 18.222656 76.8125 18.882812 77.433594 19.566406 78.03125 C 20.246094 78.632812 20.945312 79.210938 21.664062 79.765625 C 22.382812 80.320312 23.117188 80.851562 23.871094 81.359375 C 24.625 81.867188 25.394531 82.351562 26.179688 82.808594 C 26.960938 83.269531 27.761719 83.703125 28.574219 84.109375 C 29.382812 84.515625 30.210938 84.894531 31.046875 85.25 C 31.882812 85.605469 32.730469 85.929688 33.589844 86.230469 C 34.445312 86.53125 35.3125 86.800781 36.1875 87.046875 C 37.0625 87.289062 37.945312 87.503906 38.835938 87.691406 C 39.722656 87.878906 40.617188 88.039062 41.519531 88.167969 C 42.417969 88.296875 43.320312 88.398438 44.226562 88.46875 C 45.132812 88.539062 46.039062 88.582031 46.949219 88.59375 C 47.859375 88.609375 48.765625 88.59375 49.675781 88.546875 C 50.582031 88.503906 51.488281 88.425781 52.390625 88.324219 C 53.292969 88.21875 54.191406 88.089844 55.085938 87.925781 C 55.980469 87.765625 56.871094 87.574219 57.75 87.355469 C 58.632812 87.140625 59.507812 86.890625 60.375 86.617188 C 61.238281 86.34375 62.097656 86.039062 62.941406 85.710938 C 63.789062 85.382812 64.625 85.023438 65.449219 84.640625 C 66.273438 84.257812 67.082031 83.847656 67.878906 83.414062 C 68.675781 82.976562 69.460938 82.515625 70.226562 82.03125 C 70.996094 81.542969 71.746094 81.035156 72.480469 80.5 C 73.214844 79.964844 73.929688 79.410156 74.628906 78.828125 C 75.328125 78.25 76.007812 77.644531 76.667969 77.023438 C 77.324219 76.398438 77.964844 75.753906 78.582031 75.089844 C 79.199219 74.421875 79.796875 73.738281 80.371094 73.035156 C 80.945312 72.332031 81.496094 71.613281 82.019531 70.871094 C 82.546875 70.132812 83.050781 69.378906 83.53125 68.609375 C 84.007812 67.835938 84.460938 67.050781 84.886719 66.25 C 85.316406 65.449219 85.71875 64.636719 86.09375 63.8125 C 86.46875 62.984375 86.816406 62.148438 87.136719 61.300781 C 87.457031 60.453125 87.75 59.59375 88.015625 58.726562 C 88.28125 57.859375 88.519531 56.984375 88.730469 56.101562 C 88.9375 55.21875 89.117188 54.332031 89.269531 53.4375 C 89.421875 52.542969 89.542969 51.644531 89.636719 50.742188 C 89.730469 49.839844 89.796875 48.9375 89.832031 48.03125 C 89.867188 47.125 89.871094 46.21875 89.847656 45.3125 C 89.824219 44.40625 89.773438 43.5 89.691406 42.597656 C 89.609375 41.695312 89.5 40.792969 89.359375 39.898438 C 89.21875 39.003906 89.050781 38.113281 88.851562 37.226562 C 88.65625 36.339844 88.429688 35.464844 88.175781 34.59375 C 87.921875 33.722656 87.636719 32.859375 87.328125 32.007812 C 87.019531 31.15625 86.683594 30.3125 86.316406 29.484375 C 85.953125 28.652344 85.5625 27.832031 85.144531 27.027344 C 84.726562 26.222656 84.285156 25.429688 83.816406 24.652344 C 83.347656 23.875 82.855469 23.113281 82.339844 22.367188 C 81.820312 21.625 81.28125 20.894531 80.714844 20.183594 C 80.152344 19.472656 79.566406 18.78125 78.957031 18.109375 C 78.347656 17.4375 77.714844 16.78125 77.066406 16.152344 C 76.414062 15.519531 75.742188 14.90625 75.050781 14.316406 C 74.359375 13.730469 73.652344 13.160156 72.925781 12.617188 C 72.195312 12.074219 71.453125 11.554688 70.691406 11.058594 C 69.929688 10.5625 69.15625 10.09375 68.363281 9.644531 C 67.570312 9.199219 66.765625 8.78125 65.949219 8.386719 C 65.128906 7.992188 64.300781 7.625 63.457031 7.285156 C 62.613281 6.941406 61.761719 6.628906 60.898438 6.34375 C 60.035156 6.058594 59.167969 5.800781 58.285156 5.570312 C 57.40625 5.339844 56.523438 5.136719 55.628906 4.964844 C 54.738281 4.792969 53.839844 4.648438 52.9375 4.53125 C 52.039062 4.417969 51.132812 4.332031 50.226562 4.273438 C 49.320312 4.21875 48.410156 4.191406 47.503906 4.191406 Z M 60.828125 80.785156 C 59.878906 81.152344 58.914062 81.476562 57.9375 81.761719 C 56.960938 82.046875 55.972656 82.292969 54.972656 82.496094 C 53.976562 82.699219 52.972656 82.863281 51.960938 82.984375 C 50.949219 83.101562 49.9375 83.183594 48.917969 83.21875 C 47.902344 83.257812 46.882812 83.25 45.867188 83.203125 C 44.847656 83.15625 43.835938 83.070312 42.828125 82.9375 C 41.816406 82.808594 40.8125 82.636719 39.816406 82.421875 C 38.824219 82.207031 37.835938 81.953125 36.863281 81.660156 C 35.890625 81.367188 34.929688 81.03125 33.980469 80.65625 C 33.035156 80.28125 32.105469 79.871094 31.191406 79.417969 C 30.28125 78.96875 29.386719 78.480469 28.515625 77.957031 C 27.644531 77.429688 26.796875 76.871094 25.96875 76.277344 C 25.144531 75.683594 24.34375 75.054688 23.570312 74.394531 C 22.796875 73.734375 22.054688 73.042969 21.335938 72.320312 C 20.621094 71.597656 19.9375 70.847656 19.28125 70.066406 C 18.628906 69.289062 18.007812 68.484375 17.421875 67.65625 C 16.832031 66.824219 16.28125 65.972656 15.765625 65.097656 C 15.25 64.21875 14.769531 63.324219 14.328125 62.410156 C 13.886719 61.496094 13.484375 60.5625 13.117188 59.613281 C 12.753906 58.664062 12.429688 57.703125 12.144531 56.730469 C 11.859375 55.753906 11.613281 54.769531 11.410156 53.773438 C 11.207031 52.777344 11.046875 51.773438 10.925781 50.765625 C 10.804688 49.757812 10.726562 48.746094 10.691406 47.730469 C 10.65625 46.714844 10.664062 45.699219 10.710938 44.683594 C 10.757812 43.667969 10.847656 42.660156 10.980469 41.652344 C 11.113281 40.644531 11.285156 39.644531 11.5 38.652344 C 11.714844 37.65625 11.972656 36.675781 12.269531 35.703125 C 12.566406 34.730469 12.902344 33.773438 13.277344 32.828125 C 13.652344 31.886719 14.066406 30.957031 14.519531 30.046875 C 14.972656 29.140625 15.464844 28.25 15.992188 27.378906 C 16.515625 26.511719 17.078125 25.664062 17.675781 24.839844 C 18.273438 24.019531 18.902344 23.222656 19.566406 22.449219 L 49.25 52.066406 L 71.570312 74.335938 C 68.359375 77.101562 64.78125 79.253906 60.828125 80.785156 Z M 75.4375 70.476562 L 23.503906 18.660156 C 26.324219 16.21875 29.449219 14.253906 32.875 12.765625 C 36.296875 11.277344 39.867188 10.332031 43.578125 9.933594 C 44.882812 9.761719 46.1875 9.667969 47.503906 9.644531 C 49.257812 9.648438 51.003906 9.773438 52.742188 10.023438 C 54.480469 10.273438 56.191406 10.648438 57.878906 11.140625 C 59.5625 11.636719 61.203125 12.246094 62.800781 12.976562 C 64.398438 13.703125 65.933594 14.539062 67.414062 15.488281 C 68.890625 16.433594 70.292969 17.480469 71.621094 18.628906 C 72.949219 19.773438 74.1875 21.011719 75.335938 22.332031 C 76.488281 23.65625 77.539062 25.054688 78.488281 26.527344 C 79.441406 28 80.28125 29.535156 81.011719 31.128906 C 81.746094 32.71875 82.359375 34.355469 82.855469 36.035156 C 83.355469 37.71875 83.730469 39.425781 83.980469 41.15625 C 84.234375 42.890625 84.363281 44.632812 84.367188 46.386719 C 84.371094 48.140625 84.25 49.882812 84.003906 51.617188 C 83.757812 53.351562 83.390625 55.058594 82.898438 56.742188 C 82.410156 58.425781 81.800781 60.066406 81.078125 61.660156 C 80.351562 63.257812 79.519531 64.792969 78.574219 66.269531 C 77.628906 67.746094 76.582031 69.148438 75.4375 70.476562 Z M 75.4375 70.476562 " fill-opacity="1" fill-rule="nonzero"></path></g><g clip-path="url(#ae0dd9eb4e)"><path fill="#f20f4b" d="M 89.871094 46.464844 C 89.871094 48.527344 89.71875 50.582031 89.417969 52.625 C 89.117188 54.671875 88.667969 56.679688 88.070312 58.65625 C 87.472656 60.636719 86.734375 62.558594 85.855469 64.429688 C 84.976562 66.296875 83.964844 68.09375 82.820312 69.816406 C 81.675781 71.539062 80.414062 73.167969 79.03125 74.703125 C 77.648438 76.242188 76.160156 77.667969 74.566406 78.988281 C 72.972656 80.308594 71.292969 81.503906 69.523438 82.578125 C 67.757812 83.652344 65.917969 84.589844 64.011719 85.394531 C 62.917969 84.03125 61.867188 82.4375 60.828125 80.785156 C 64.78125 79.253906 68.359375 77.101562 71.570312 74.335938 L 49.25 52.066406 C 48.417969 48.878906 47.667969 45.550781 47.011719 42.113281 L 75.4375 70.476562 C 76.582031 69.148438 77.628906 67.746094 78.574219 66.269531 C 79.519531 64.792969 80.351562 63.257812 81.078125 61.660156 C 81.800781 60.066406 82.410156 58.425781 82.898438 56.742188 C 83.390625 55.058594 83.757812 53.351562 84.003906 51.617188 C 84.25 49.882812 84.371094 48.140625 84.367188 46.386719 C 84.363281 44.632812 84.234375 42.890625 83.980469 41.15625 C 83.730469 39.425781 83.355469 37.71875 82.855469 36.035156 C 82.359375 34.355469 81.746094 32.71875 81.011719 31.128906 C 80.28125 29.535156 79.441406 28 78.488281 26.527344 C 77.539062 25.054688 76.488281 23.65625 75.335938 22.332031 C 74.1875 21.011719 72.949219 19.773438 71.621094 18.628906 C 70.292969 17.480469 68.890625 16.433594 67.414062 15.488281 C 65.933594 14.539062 64.398438 13.703125 62.800781 12.976562 C 61.203125 12.246094 59.5625 11.636719 57.878906 11.140625 C 56.191406 10.648438 54.480469 10.273438 52.742188 10.023438 C 51.003906 9.773438 49.257812 9.648438 47.503906 9.644531 C 46.167969 9.640625 44.835938 9.714844 43.511719 9.863281 C 43.511719 8.050781 43.414062 6.234375 43.414062 4.410156 C 44.773438 4.265625 46.136719 4.195312 47.503906 4.191406 C 48.890625 4.191406 50.273438 4.257812 51.65625 4.394531 C 53.035156 4.53125 54.40625 4.734375 55.769531 5.003906 C 57.128906 5.273438 58.472656 5.609375 59.800781 6.011719 C 61.128906 6.414062 62.433594 6.878906 63.714844 7.410156 C 64.996094 7.9375 66.25 8.53125 67.476562 9.183594 C 68.699219 9.835938 69.886719 10.546875 71.039062 11.316406 C 72.195312 12.085938 73.308594 12.90625 74.378906 13.785156 C 75.453125 14.664062 76.480469 15.59375 77.460938 16.570312 C 78.441406 17.550781 79.375 18.574219 80.253906 19.644531 C 81.132812 20.714844 81.960938 21.828125 82.730469 22.976562 C 83.5 24.128906 84.214844 25.316406 84.867188 26.535156 C 85.523438 27.757812 86.113281 29.007812 86.644531 30.285156 C 87.175781 31.566406 87.644531 32.867188 88.046875 34.191406 C 88.449219 35.515625 88.785156 36.859375 89.058594 38.214844 C 89.328125 39.574219 89.53125 40.941406 89.667969 42.320312 C 89.804688 43.699219 89.871094 45.078125 89.871094 46.464844 Z M 89.871094 46.464844 " fill-opacity="1" fill-rule="nonzero"></path></g></svg>