<svg xmlns="http://www.w3.org/2000/svg" xmlns:xlink="http://www.w3.org/1999/xlink" width="128" viewBox="0 0 96 95.999999" height="128" preserveAspectRatio="xMidYMid meet"><defs><clipPath id="0cdcb6304d"><path d="M 5.101562 5.101562 L 91.351562 5.101562 L 91.351562 91.351562 L 5.101562 91.351562 Z M 5.101562 5.101562 " clip-rule="nonzero"></path></clipPath></defs><g clip-path="url(#0cdcb6304d)"><path fill="#ef6836" d="M 48.226562 7.066406 C 25.53125 7.066406 7.066406 25.53125 7.066406 48.226562 C 7.066406 70.917969 25.53125 89.382812 48.226562 89.382812 C 70.917969 89.382812 89.382812 70.917969 89.382812 48.226562 C 89.382812 25.53125 70.917969 7.066406 48.226562 7.066406 Z M 48.226562 91.351562 C 36.707031 91.351562 25.875 86.863281 17.730469 78.71875 C 9.585938 70.574219 5.101562 59.742188 5.101562 48.226562 C 5.101562 36.707031 9.585938 25.875 17.730469 17.730469 C 25.875 9.585938 36.707031 5.101562 48.226562 5.101562 C 59.742188 5.101562 70.574219 9.585938 78.71875 17.730469 C 86.863281 25.875 91.351562 36.707031 91.351562 48.226562 C 91.351562 59.742188 86.863281 70.574219 78.71875 78.71875 C 70.574219 86.863281 59.742188 91.351562 48.226562 91.351562 " fill-opacity="1" fill-rule="nonzero"></path></g><path fill="#ef6836" d="M 48.226562 76.292969 C 32.75 76.292969 20.160156 63.699219 20.160156 48.226562 C 20.160156 32.75 32.75 20.160156 48.226562 20.160156 C 63.699219 20.160156 76.292969 32.75 76.292969 48.226562 C 76.292969 63.699219 63.699219 76.292969 48.226562 76.292969 Z M 69.589844 26.859375 C 63.882812 21.15625 56.296875 18.011719 48.226562 18.011719 C 40.15625 18.011719 32.566406 21.15625 26.859375 26.859375 C 21.15625 32.566406 18.011719 40.15625 18.011719 48.226562 C 18.011719 56.296875 21.15625 63.882812 26.859375 69.589844 C 32.566406 75.296875 40.15625 78.4375 48.226562 78.4375 C 56.296875 78.4375 63.882812 75.296875 69.589844 69.589844 C 75.296875 63.882812 78.4375 56.296875 78.4375 48.226562 C 78.4375 40.15625 75.296875 32.566406 69.589844 26.859375 " fill-opacity="1" fill-rule="nonzero"></path><path fill="#1c6434" d="M 10.65625 50.527344 L 10.660156 50.546875 L 11.320312 51.621094 L 10.671875 51.824219 L 9.847656 50.472656 L 9.804688 49.734375 L 16.191406 49.378906 L 16.238281 50.214844 L 10.65625 50.527344 " fill-opacity="1" fill-rule="nonzero"></path><path fill="#1c6434" d="M 13.046875 46.21875 C 14.699219 46.378906 15.6875 45.957031 15.765625 45.175781 C 15.847656 44.292969 14.859375 43.773438 13.234375 43.621094 C 11.667969 43.46875 10.601562 43.773438 10.515625 44.664062 C 10.445312 45.417969 11.3125 46.054688 13.046875 46.21875 Z M 13.277344 42.753906 C 15.441406 42.960938 16.558594 43.878906 16.425781 45.289062 C 16.304688 46.53125 15.058594 47.261719 12.953125 47.082031 C 10.820312 46.875 9.730469 45.84375 9.855469 44.550781 C 9.984375 43.210938 11.25 42.558594 13.277344 42.753906 " fill-opacity="1" fill-rule="nonzero"></path><path fill="#1c6434" d="M 13.753906 41.015625 C 15.371094 41.398438 16.40625 41.121094 16.589844 40.355469 C 16.796875 39.496094 15.890625 38.84375 14.300781 38.464844 C 12.769531 38.101562 11.671875 38.253906 11.464844 39.121094 C 11.289062 39.859375 12.0625 40.609375 13.753906 41.015625 Z M 14.464844 37.613281 C 16.578125 38.117188 17.558594 39.179688 17.230469 40.558594 C 16.941406 41.773438 15.605469 42.324219 13.542969 41.851562 C 11.457031 41.355469 10.523438 40.183594 10.824219 38.917969 C 11.136719 37.609375 12.484375 37.140625 14.464844 37.613281 " fill-opacity="1" fill-rule="nonzero"></path><path fill="#1c6434" d="M 17.964844 32.820312 C 18.703125 33.171875 19.398438 33.144531 19.621094 32.664062 C 19.859375 32.144531 19.414062 31.65625 18.648438 31.304688 C 17.941406 30.976562 17.257812 30.910156 17.003906 31.453125 C 16.777344 31.945312 17.234375 32.480469 17.964844 32.820312 Z M 18.894531 30.671875 C 20.117188 31.234375 20.429688 32.160156 20.085938 32.902344 C 19.75 33.625 18.882812 33.980469 17.71875 33.453125 C 16.546875 32.910156 16.1875 31.976562 16.542969 31.207031 C 16.921875 30.394531 17.789062 30.15625 18.894531 30.671875 Z M 18.34375 36.753906 L 13.925781 30.570312 L 14.15625 30.070312 L 18.578125 36.257812 Z M 13.816406 35.484375 C 14.550781 35.84375 15.242188 35.828125 15.46875 35.335938 C 15.707031 34.820312 15.261719 34.332031 14.492188 33.976562 C 13.789062 33.652344 13.105469 33.582031 12.851562 34.128906 C 12.625 34.617188 13.085938 35.144531 13.816406 35.484375 Z M 14.746094 33.335938 C 15.96875 33.902344 16.28125 34.824219 15.933594 35.574219 C 15.597656 36.296875 14.730469 36.652344 13.554688 36.121094 C 12.394531 35.585938 12.035156 34.648438 12.390625 33.882812 C 12.765625 33.070312 13.640625 32.824219 14.746094 33.335938 " fill-opacity="1" fill-rule="nonzero"></path><path fill="#1c6434" d="M 25.019531 25.175781 C 25.164062 25.082031 25.347656 24.921875 25.570312 24.714844 C 26.214844 24.105469 26.585938 23.3125 25.925781 22.609375 C 25.304688 21.949219 24.484375 22.210938 23.804688 22.851562 L 23.289062 23.335938 Z M 22.84375 22.863281 L 23.410156 22.332031 C 24.066406 21.710938 24.132812 21.003906 23.691406 20.539062 C 23.160156 19.972656 22.519531 20.152344 21.890625 20.746094 C 21.605469 21.015625 21.460938 21.195312 21.378906 21.308594 Z M 20.359375 21.472656 C 20.578125 21.160156 20.964844 20.710938 21.402344 20.300781 C 22.027344 19.714844 22.527344 19.445312 23.058594 19.40625 C 23.484375 19.355469 23.90625 19.5 24.261719 19.878906 C 24.699219 20.34375 24.777344 21.042969 24.445312 21.707031 L 24.457031 21.722656 C 25.023438 21.40625 25.917969 21.28125 26.59375 21.996094 C 26.984375 22.410156 27.113281 22.882812 27.09375 23.347656 C 27.046875 23.972656 26.636719 24.628906 25.851562 25.367188 C 25.421875 25.773438 25.0625 26.054688 24.828125 26.222656 L 20.359375 21.472656 " fill-opacity="1" fill-rule="nonzero"></path><path fill="#1c6434" d="M 25.414062 17.003906 L 29.378906 22.316406 L 28.695312 22.828125 L 24.726562 17.515625 L 25.414062 17.003906 " fill-opacity="1" fill-rule="nonzero"></path><path fill="#1c6434" d="M 29.238281 18.382812 C 29.925781 19.621094 31.210938 20.355469 32.390625 19.703125 C 33.578125 19.046875 33.644531 17.582031 32.914062 16.265625 C 32.273438 15.113281 31.003906 14.242188 29.753906 14.933594 C 28.515625 15.621094 28.53125 17.109375 29.238281 18.382812 Z M 33.683594 15.792969 C 34.792969 17.785156 34.164062 19.515625 32.6875 20.339844 C 31.15625 21.1875 29.421875 20.597656 28.449219 18.84375 C 27.425781 17 27.902344 15.164062 29.453125 14.304688 C 31.035156 13.425781 32.730469 14.070312 33.683594 15.792969 " fill-opacity="1" fill-rule="nonzero"></path><path fill="#1c6434" d="M 36.6875 17.570312 C 36.90625 17.539062 37.207031 17.453125 37.527344 17.351562 C 39.269531 16.792969 39.902344 15.515625 39.359375 13.8125 C 38.890625 12.320312 37.746094 11.644531 36.019531 12.195312 C 35.597656 12.328125 35.292969 12.46875 35.089844 12.585938 Z M 34.085938 12.246094 C 34.558594 12.011719 35.128906 11.765625 35.777344 11.558594 C 36.949219 11.1875 37.867188 11.191406 38.585938 11.527344 C 39.3125 11.863281 39.875 12.488281 40.203125 13.511719 C 40.53125 14.542969 40.480469 15.488281 40.078125 16.257812 C 39.675781 17.035156 38.804688 17.664062 37.578125 18.058594 C 36.996094 18.246094 36.5 18.371094 36.074219 18.457031 L 34.085938 12.246094 " fill-opacity="1" fill-rule="nonzero"></path><path fill="#1c6434" d="M 45.066406 13.175781 L 42.515625 13.535156 L 42.851562 15.902344 L 45.695312 15.5 L 45.792969 16.210938 L 42.101562 16.730469 L 41.175781 10.167969 L 44.722656 9.667969 L 44.820312 10.378906 L 42.125 10.757812 L 42.417969 12.832031 L 44.96875 12.472656 L 45.066406 13.175781 " fill-opacity="1" fill-rule="nonzero"></path><path fill="#1c6434" d="M 51.691406 15.976562 C 51.304688 16.101562 50.542969 16.308594 49.644531 16.285156 C 48.644531 16.257812 47.824219 15.976562 47.191406 15.339844 C 46.636719 14.773438 46.308594 13.878906 46.335938 12.847656 C 46.398438 10.871094 47.796875 9.460938 50.019531 9.523438 C 50.785156 9.542969 51.378906 9.726562 51.660156 9.875 L 51.4375 10.566406 C 51.085938 10.398438 50.648438 10.257812 49.980469 10.242188 C 48.367188 10.195312 47.285156 11.171875 47.242188 12.832031 C 47.195312 14.515625 48.179688 15.535156 49.726562 15.578125 C 50.285156 15.59375 50.671875 15.523438 50.871094 15.433594 L 50.925781 13.453125 L 49.578125 13.417969 L 49.597656 12.730469 L 51.777344 12.789062 L 51.691406 15.976562 " fill-opacity="1" fill-rule="nonzero"></path><path fill="#1c6434" d="M 54.238281 13.167969 L 55.097656 13.34375 C 55.992188 13.523438 56.664062 13.148438 56.8125 12.40625 C 56.984375 11.566406 56.449219 11.078125 55.566406 10.886719 C 55.160156 10.804688 54.863281 10.785156 54.71875 10.796875 Z M 54 10.039062 C 54.441406 10.039062 55.058594 10.113281 55.636719 10.230469 C 56.535156 10.410156 57.078125 10.691406 57.410156 11.140625 C 57.679688 11.496094 57.773438 11.976562 57.671875 12.480469 C 57.496094 13.335938 56.84375 13.796875 56.109375 13.890625 L 56.105469 13.917969 C 56.570312 14.195312 56.777344 14.714844 56.792969 15.421875 C 56.820312 16.371094 56.847656 17.03125 56.933594 17.308594 L 56.066406 17.132812 C 55.996094 16.925781 55.964844 16.339844 55.945312 15.492188 C 55.933594 14.554688 55.65625 14.148438 54.902344 13.964844 L 54.109375 13.804688 L 53.539062 16.621094 L 52.699219 16.449219 L 54 10.039062 " fill-opacity="1" fill-rule="nonzero"></path><path fill="#1c6434" d="M 61.667969 16.125 L 61.75 14.113281 C 61.765625 13.652344 61.816406 13.25 61.863281 12.859375 L 61.84375 12.851562 C 61.609375 13.183594 61.363281 13.519531 61.101562 13.851562 L 59.804688 15.40625 Z M 59.402344 15.96875 L 58.007812 17.667969 L 57.183594 17.347656 L 61.664062 11.972656 L 62.628906 12.34375 L 62.359375 19.339844 L 61.507812 19.011719 L 61.59375 16.8125 L 59.402344 15.96875 " fill-opacity="1" fill-rule="nonzero"></path><path fill="#1c6434" d="M 64.042969 19.539062 C 64.207031 19.6875 64.46875 19.859375 64.753906 20.035156 C 66.308594 21 67.691406 20.652344 68.636719 19.132812 C 69.46875 17.808594 69.238281 16.496094 67.699219 15.542969 C 67.324219 15.3125 67.019531 15.167969 66.800781 15.089844 Z M 66.40625 14.105469 C 66.890625 14.3125 67.445312 14.589844 68.023438 14.945312 C 69.070312 15.59375 69.664062 16.296875 69.871094 17.0625 C 70.089844 17.832031 69.976562 18.667969 69.410156 19.578125 C 68.84375 20.5 68.089844 21.074219 67.242188 21.265625 C 66.390625 21.464844 65.34375 21.210938 64.25 20.535156 C 63.730469 20.210938 63.3125 19.917969 62.96875 19.648438 L 66.40625 14.105469 " fill-opacity="1" fill-rule="nonzero"></path><path fill="#1c6434" d="M 72.347656 23.136719 L 73.152344 21.289062 C 73.335938 20.867188 73.527344 20.511719 73.710938 20.160156 L 73.699219 20.148438 C 73.359375 20.375 73.007812 20.597656 72.640625 20.8125 L 70.871094 21.792969 Z M 70.289062 22.167969 L 68.378906 23.246094 L 67.722656 22.652344 L 73.851562 19.261719 L 74.613281 19.957031 L 71.828125 26.386719 L 71.148438 25.769531 L 72.027344 23.75 L 70.289062 22.167969 " fill-opacity="1" fill-rule="nonzero"></path><path fill="#1c6434" d="M 75.792969 25.269531 L 76.273438 25.882812 C 76.832031 26.59375 77.53125 26.71875 78.035156 26.328125 C 78.644531 25.847656 78.519531 25.195312 77.988281 24.511719 C 77.746094 24.203125 77.582031 24.042969 77.476562 23.953125 Z M 73.292969 27.226562 C 73.371094 27.378906 73.515625 27.578125 73.703125 27.816406 C 74.25 28.515625 75.007812 28.957031 75.765625 28.363281 C 76.480469 27.804688 76.296875 26.960938 75.71875 26.226562 L 75.28125 25.667969 Z M 77.40625 22.921875 C 77.695312 23.167969 78.105469 23.597656 78.476562 24.066406 C 79.003906 24.742188 79.226562 25.265625 79.21875 25.796875 C 79.230469 26.226562 79.046875 26.632812 78.636719 26.953125 C 78.132812 27.347656 77.429688 27.359375 76.800781 26.96875 L 76.785156 26.980469 C 77.046875 27.574219 77.09375 28.476562 76.316406 29.082031 C 75.867188 29.433594 75.386719 29.519531 74.925781 29.457031 C 74.308594 29.355469 73.691406 28.886719 73.027344 28.035156 C 72.664062 27.570312 72.414062 27.191406 72.269531 26.941406 L 77.40625 22.921875 " fill-opacity="1" fill-rule="nonzero"></path><path fill="#1c6434" d="M 81.0625 27.757812 L 81.488281 28.503906 L 76.347656 31.425781 L 77.746094 33.886719 L 77.121094 34.242188 L 75.300781 31.035156 L 81.0625 27.757812 " fill-opacity="1" fill-rule="nonzero"></path><path fill="#1c6434" d="M 81.5625 36.957031 L 80.613281 34.5625 L 78.390625 35.441406 L 79.445312 38.113281 L 78.777344 38.375 L 77.40625 34.910156 L 83.570312 32.46875 L 84.890625 35.800781 L 84.222656 36.0625 L 83.21875 33.53125 L 81.269531 34.300781 L 82.21875 36.699219 L 81.5625 36.957031 " fill-opacity="1" fill-rule="nonzero"></path><path fill="#1c6434" d="M 85.796875 46.144531 L 85.796875 46.125 L 85.140625 45.046875 L 85.792969 44.847656 L 86.605469 46.203125 L 86.644531 46.941406 L 80.257812 47.257812 L 80.214844 46.421875 L 85.796875 46.144531 " fill-opacity="1" fill-rule="nonzero"></path><path fill="#1c6434" d="M 83.382812 50.433594 C 81.730469 50.265625 80.738281 50.679688 80.660156 51.464844 C 80.570312 52.34375 81.558594 52.867188 83.183594 53.03125 C 84.746094 53.191406 85.816406 52.890625 85.90625 52 C 85.980469 51.25 85.117188 50.609375 83.382812 50.433594 Z M 83.132812 53.898438 C 80.972656 53.679688 79.859375 52.757812 80 51.347656 C 80.125 50.105469 81.375 49.378906 83.480469 49.574219 C 85.613281 49.789062 86.695312 50.824219 86.566406 52.117188 C 86.429688 53.457031 85.160156 54.101562 83.132812 53.898438 " fill-opacity="1" fill-rule="nonzero"></path><path fill="#1c6434" d="M 82.660156 55.65625 C 81.050781 55.246094 80.007812 55.511719 79.816406 56.273438 C 79.597656 57.132812 80.496094 57.796875 82.078125 58.195312 C 83.601562 58.582031 84.703125 58.445312 84.921875 57.578125 C 85.109375 56.84375 84.347656 56.082031 82.660156 55.65625 Z M 81.902344 59.046875 C 79.796875 58.511719 78.832031 57.433594 79.179688 56.0625 C 79.484375 54.851562 80.828125 54.320312 82.882812 54.820312 C 84.960938 55.347656 85.878906 56.53125 85.558594 57.789062 C 85.226562 59.097656 83.875 59.546875 81.902344 59.046875 " fill-opacity="1" fill-rule="nonzero"></path><path fill="#1c6434" d="M 82.5625 61.167969 C 81.832031 60.800781 81.140625 60.816406 80.910156 61.304688 C 80.667969 61.820312 81.113281 62.3125 81.878906 62.671875 C 82.582031 63.003906 83.265625 63.074219 83.519531 62.53125 C 83.75 62.039062 83.292969 61.511719 82.5625 61.167969 Z M 81.621094 63.3125 C 80.402344 62.738281 80.097656 61.8125 80.449219 61.066406 C 80.785156 60.34375 81.65625 59.992188 82.828125 60.53125 C 83.984375 61.074219 84.339844 62.011719 83.980469 62.777344 C 83.597656 63.589844 82.726562 63.832031 81.621094 63.3125 Z M 78.042969 59.871094 L 82.429688 66.082031 L 82.195312 66.582031 L 77.808594 60.367188 Z M 78.398438 63.808594 C 77.664062 63.453125 76.96875 63.472656 76.742188 63.953125 C 76.5 64.472656 76.941406 64.960938 77.710938 65.320312 C 78.414062 65.652344 79.097656 65.722656 79.351562 65.179688 C 79.582031 64.691406 79.128906 64.152344 78.398438 63.808594 Z M 77.457031 65.953125 C 76.234375 65.378906 75.933594 64.453125 76.277344 63.714844 C 76.617188 62.996094 77.488281 62.644531 78.652344 63.175781 C 79.816406 63.726562 80.171875 64.664062 79.8125 65.429688 C 79.429688 66.238281 78.558594 66.472656 77.457031 65.953125 " fill-opacity="1" fill-rule="nonzero"></path><path fill="#1c6434" d="M 73.464844 73.734375 L 72.894531 74.261719 C 72.234375 74.878906 72.167969 75.589844 72.601562 76.054688 C 73.132812 76.625 73.773438 76.445312 74.40625 75.855469 C 74.695312 75.585938 74.839844 75.410156 74.917969 75.296875 Z M 71.296875 71.410156 C 71.15625 71.503906 70.96875 71.664062 70.746094 71.871094 C 70.097656 72.472656 69.722656 73.269531 70.378906 73.972656 C 70.996094 74.636719 71.820312 74.378906 72.503906 73.742188 L 73.023438 73.257812 Z M 75.941406 75.136719 C 75.722656 75.449219 75.328125 75.894531 74.890625 76.304688 C 74.265625 76.886719 73.761719 77.15625 73.230469 77.191406 C 72.804688 77.238281 72.386719 77.09375 72.03125 76.710938 C 71.59375 76.242188 71.523438 75.542969 71.859375 74.882812 L 71.84375 74.867188 C 71.277344 75.179688 70.382812 75.300781 69.710938 74.582031 C 69.324219 74.164062 69.191406 73.695312 69.214844 73.230469 C 69.265625 72.605469 69.679688 71.953125 70.46875 71.214844 C 70.902344 70.8125 71.261719 70.53125 71.496094 70.367188 L 75.941406 75.136719 " fill-opacity="1" fill-rule="nonzero"></path><path fill="#1c6434" d="M 70.867188 79.578125 L 66.925781 74.246094 L 67.613281 73.738281 L 71.554688 79.070312 L 70.867188 79.578125 " fill-opacity="1" fill-rule="nonzero"></path><path fill="#1c6434" d="M 67.046875 78.183594 C 66.367188 76.941406 65.085938 76.199219 63.902344 76.847656 C 62.714844 77.5 62.640625 78.964844 63.363281 80.28125 C 64 81.4375 65.265625 82.316406 66.515625 81.628906 C 67.757812 80.949219 67.75 79.460938 67.046875 78.183594 Z M 62.589844 80.753906 C 61.492188 78.753906 62.128906 77.023438 63.609375 76.210938 C 65.144531 75.367188 66.875 75.96875 67.839844 77.726562 C 68.851562 79.570312 68.367188 81.410156 66.816406 82.261719 C 65.230469 83.128906 63.535156 82.476562 62.589844 80.753906 " fill-opacity="1" fill-rule="nonzero"></path><path fill="#1c6434" d="M 59.59375 78.960938 C 59.375 78.988281 59.070312 79.074219 58.75 79.171875 C 57.007812 79.722656 56.363281 80.996094 56.898438 82.703125 C 57.359375 84.199219 58.5 84.878906 60.226562 84.339844 C 60.648438 84.207031 60.957031 84.070312 61.160156 83.953125 Z M 62.164062 84.296875 C 61.691406 84.53125 61.117188 84.769531 60.46875 84.972656 C 59.296875 85.34375 58.375 85.332031 57.660156 84.988281 C 56.933594 84.648438 56.375 84.019531 56.054688 83 C 55.730469 81.964844 55.785156 81.019531 56.195312 80.253906 C 56.601562 79.476562 57.476562 78.851562 58.707031 78.464844 C 59.285156 78.285156 59.785156 78.160156 60.210938 78.074219 L 62.164062 84.296875 " fill-opacity="1" fill-rule="nonzero"></path><path fill="#1c6434" d="M 51.183594 83.304688 L 53.738281 82.960938 L 53.421875 80.59375 L 50.574219 80.976562 L 50.476562 80.265625 L 54.171875 79.765625 L 55.058594 86.335938 L 51.511719 86.816406 L 51.414062 86.105469 L 54.113281 85.742188 L 53.835938 83.664062 L 51.28125 84.007812 L 51.183594 83.304688 " fill-opacity="1" fill-rule="nonzero"></path><path fill="#1c6434" d="M 44.585938 80.464844 C 44.976562 80.339844 45.738281 80.140625 46.632812 80.167969 C 47.636719 80.203125 48.453125 80.484375 49.082031 81.125 C 49.632812 81.695312 49.960938 82.589844 49.925781 83.625 C 49.851562 85.597656 48.445312 87 46.222656 86.925781 C 45.457031 86.902344 44.863281 86.714844 44.582031 86.566406 L 44.8125 85.875 C 45.160156 86.042969 45.597656 86.1875 46.269531 86.210938 C 47.878906 86.261719 48.964844 85.292969 49.019531 83.632812 C 49.074219 81.953125 48.09375 80.925781 46.550781 80.875 C 45.992188 80.855469 45.605469 80.921875 45.40625 81.015625 L 45.339844 82.988281 L 46.6875 83.035156 L 46.664062 83.722656 L 44.480469 83.652344 L 44.585938 80.464844 " fill-opacity="1" fill-rule="nonzero"></path><path fill="#1c6434" d="M 42.023438 83.261719 L 41.164062 83.085938 C 40.269531 82.898438 39.597656 83.273438 39.445312 84.015625 C 39.273438 84.851562 39.804688 85.34375 40.6875 85.535156 C 41.09375 85.621094 41.390625 85.640625 41.53125 85.632812 Z M 42.25 86.390625 C 41.808594 86.390625 41.191406 86.3125 40.613281 86.195312 C 39.714844 86.007812 39.171875 85.726562 38.84375 85.277344 C 38.574219 84.917969 38.484375 84.4375 38.589844 83.9375 C 38.765625 83.082031 39.421875 82.625 40.152344 82.535156 L 40.160156 82.503906 C 39.695312 82.226562 39.492188 81.703125 39.476562 80.996094 C 39.453125 80.046875 39.429688 79.390625 39.34375 79.113281 L 40.210938 79.292969 C 40.28125 79.496094 40.308594 80.085938 40.324219 80.933594 C 40.332031 81.867188 40.609375 82.277344 41.363281 82.460938 L 42.152344 82.625 L 42.734375 79.8125 L 43.574219 79.988281 L 42.25 86.390625 " fill-opacity="1" fill-rule="nonzero"></path><path fill="#1c6434" d="M 34.597656 80.269531 L 34.503906 82.28125 C 34.484375 82.738281 34.433594 83.140625 34.382812 83.535156 L 34.402344 83.539062 C 34.636719 83.210938 34.886719 82.875 35.152344 82.546875 L 36.457031 80.996094 Z M 36.863281 80.4375 L 38.265625 78.746094 L 39.089844 79.070312 L 34.574219 84.421875 L 33.613281 84.046875 L 33.921875 77.046875 L 34.777344 77.378906 L 34.675781 79.582031 L 36.863281 80.4375 " fill-opacity="1" fill-rule="nonzero"></path><path fill="#1c6434" d="M 32.242188 76.839844 C 32.082031 76.691406 31.820312 76.515625 31.535156 76.339844 C 29.988281 75.367188 28.601562 75.703125 27.648438 77.21875 C 26.808594 78.539062 27.03125 79.851562 28.5625 80.8125 C 28.9375 81.050781 29.242188 81.191406 29.460938 81.273438 Z M 29.851562 82.261719 C 29.367188 82.050781 28.808594 81.769531 28.234375 81.410156 C 27.195312 80.753906 26.605469 80.046875 26.402344 79.28125 C 26.1875 78.507812 26.304688 77.675781 26.875 76.769531 C 27.453125 75.851562 28.207031 75.28125 29.054688 75.09375 C 29.910156 74.898438 30.953125 75.160156 32.042969 75.84375 C 32.5625 76.167969 32.976562 76.464844 33.320312 76.738281 L 29.851562 82.261719 " fill-opacity="1" fill-rule="nonzero"></path><path fill="#1c6434" d="M 23.960938 73.191406 L 23.148438 75.039062 C 22.960938 75.457031 22.769531 75.8125 22.582031 76.160156 L 22.597656 76.175781 C 22.933594 75.953125 23.289062 75.726562 23.652344 75.519531 L 25.429688 74.546875 Z M 26.015625 74.171875 L 27.933594 73.105469 L 28.585938 73.703125 L 22.4375 77.058594 L 21.675781 76.359375 L 24.5 69.949219 L 25.175781 70.566406 L 24.285156 72.582031 L 26.015625 74.171875 " fill-opacity="1" fill-rule="nonzero"></path><path fill="#1c6434" d="M 23.042969 69.101562 C 22.964844 68.953125 22.820312 68.75 22.632812 68.511719 C 22.089844 67.8125 21.335938 67.363281 20.574219 67.953125 C 19.855469 68.507812 20.039062 69.351562 20.609375 70.089844 L 21.042969 70.652344 Z M 20.53125 71.046875 L 20.054688 70.433594 C 19.5 69.71875 18.800781 69.589844 18.296875 69.980469 C 17.683594 70.457031 17.804688 71.109375 18.332031 71.792969 C 18.574219 72.105469 18.738281 72.265625 18.84375 72.355469 Z M 18.910156 73.386719 C 18.617188 73.140625 18.210938 72.710938 17.84375 72.238281 C 17.320312 71.558594 17.097656 71.035156 17.109375 70.503906 C 17.101562 70.074219 17.285156 69.671875 17.695312 69.351562 C 18.203125 68.957031 18.902344 68.949219 19.535156 69.34375 L 19.550781 69.332031 C 19.289062 68.738281 19.25 67.835938 20.027344 67.234375 C 20.476562 66.882812 20.957031 66.796875 21.417969 66.863281 C 22.035156 66.96875 22.648438 67.441406 23.3125 68.296875 C 23.675781 68.761719 23.921875 69.144531 24.066406 69.390625 L 18.910156 73.386719 " fill-opacity="1" fill-rule="nonzero"></path><path fill="#1c6434" d="M 15.277344 68.535156 L 14.855469 67.789062 L 20.007812 64.890625 L 18.621094 62.421875 L 19.246094 62.070312 L 21.054688 65.285156 L 15.277344 68.535156 " fill-opacity="1" fill-rule="nonzero"></path><path fill="#1c6434" d="M 14.820312 59.332031 L 15.757812 61.730469 L 17.984375 60.863281 L 16.941406 58.1875 L 17.609375 57.925781 L 18.964844 61.402344 L 12.785156 63.808594 L 11.488281 60.472656 L 12.15625 60.210938 L 13.144531 62.75 L 15.097656 61.988281 L 14.160156 59.585938 L 14.820312 59.332031 " fill-opacity="1" fill-rule="nonzero"></path><path fill="#1c6434" d="M 43.101562 64.75 C 43 64.472656 42.917969 64.1875 42.855469 63.898438 C 42.789062 63.609375 42.734375 63.320312 42.695312 63.027344 L 42.710938 63.066406 C 42.46875 62.789062 42.25 62.488281 42.054688 62.171875 L 42.105469 62.21875 C 41.496094 61.941406 40.917969 61.597656 40.363281 61.222656 C 40.226562 61.128906 40.085938 61.035156 39.949219 60.9375 L 39.546875 60.636719 L 39.15625 60.320312 C 39.027344 60.214844 38.902344 60.105469 38.773438 59.996094 C 38.269531 59.554688 37.785156 59.09375 37.324219 58.609375 C 37.089844 58.371094 36.863281 58.121094 36.644531 57.871094 C 36.535156 57.742188 36.425781 57.613281 36.316406 57.484375 L 36.238281 57.386719 L 36.210938 57.355469 L 36.195312 57.332031 L 36.15625 57.28125 L 36.003906 57.082031 L 35.703125 56.6875 C 35.652344 56.625 35.605469 56.554688 35.558594 56.484375 L 35.414062 56.269531 L 35.128906 55.84375 L 34.871094 55.410156 L 34.742188 55.191406 L 34.675781 55.082031 L 34.617188 54.96875 L 34.390625 54.511719 L 34.273438 54.285156 L 34.171875 54.054688 L 33.972656 53.585938 L 33.921875 53.46875 L 33.875 53.351562 L 33.789062 53.113281 L 33.613281 52.636719 L 33.460938 52.152344 L 33.382812 51.910156 C 33.359375 51.832031 33.332031 51.75 33.3125 51.667969 L 33.183594 51.179688 L 33.121094 50.9375 C 33.097656 50.855469 33.082031 50.773438 33.0625 50.691406 C 32.996094 50.359375 32.914062 50.035156 32.859375 49.703125 C 32.800781 49.375 32.734375 49.042969 32.6875 48.714844 C 32.640625 48.382812 32.585938 48.050781 32.546875 47.722656 C 32.457031 47.058594 32.386719 46.398438 32.320312 45.738281 C 32.253906 45.078125 32.195312 44.417969 32.140625 43.757812 C 32.085938 43.097656 32.027344 42.441406 31.984375 41.769531 C 31.945312 41.101562 31.917969 40.429688 31.933594 39.753906 C 31.949219 39.078125 31.996094 38.398438 32.125 37.71875 C 32.1875 37.375 32.273438 37.035156 32.394531 36.699219 C 32.515625 36.363281 32.675781 36.03125 32.90625 35.726562 C 33.023438 35.578125 33.15625 35.433594 33.304688 35.3125 L 33.421875 35.222656 L 33.542969 35.140625 C 33.585938 35.113281 33.628906 35.089844 33.671875 35.066406 C 33.714844 35.042969 33.75 35.027344 33.785156 35.007812 L 34.667969 34.554688 L 34.863281 34.457031 L 35.023438 34.582031 L 36.140625 35.460938 C 36.511719 35.753906 36.878906 36.054688 37.238281 36.359375 C 37.601562 36.664062 37.960938 36.972656 38.320312 37.28125 L 38.855469 37.746094 C 39.035156 37.902344 39.210938 38.058594 39.386719 38.214844 C 39.738281 38.53125 40.089844 38.851562 40.4375 39.171875 C 40.609375 39.332031 40.785156 39.492188 40.957031 39.65625 L 41.46875 40.144531 C 41.808594 40.476562 42.148438 40.800781 42.480469 41.140625 C 42.816406 41.472656 43.140625 41.816406 43.46875 42.15625 L 42.933594 41.691406 C 42.753906 41.535156 42.574219 41.386719 42.394531 41.230469 C 42.214844 41.078125 42.039062 40.921875 41.855469 40.773438 L 41.3125 40.316406 L 40.769531 39.867188 C 40.589844 39.714844 40.40625 39.566406 40.222656 39.417969 C 39.859375 39.121094 39.492188 38.824219 39.121094 38.53125 L 38.566406 38.089844 L 38.011719 37.65625 C 37.640625 37.363281 37.269531 37.078125 36.894531 36.792969 L 35.765625 35.941406 L 34.625 35.109375 L 34.980469 35.136719 L 34.113281 35.621094 C 34.078125 35.636719 34.035156 35.660156 34.011719 35.679688 C 33.980469 35.695312 33.953125 35.710938 33.925781 35.730469 L 33.84375 35.789062 L 33.765625 35.855469 C 33.664062 35.945312 33.570312 36.046875 33.488281 36.160156 C 33.152344 36.621094 32.980469 37.234375 32.878906 37.851562 C 32.777344 38.472656 32.746094 39.117188 32.742188 39.765625 C 32.742188 40.410156 32.765625 41.0625 32.816406 41.714844 C 32.824219 41.875 32.839844 42.039062 32.851562 42.203125 L 32.898438 42.695312 L 32.984375 43.683594 L 33.070312 44.667969 L 33.167969 45.652344 C 33.230469 46.308594 33.300781 46.964844 33.382812 47.613281 C 33.421875 47.941406 33.46875 48.261719 33.515625 48.585938 C 33.558594 48.914062 33.617188 49.230469 33.671875 49.554688 C 33.785156 50.195312 33.921875 50.832031 34.082031 51.460938 C 34.097656 51.539062 34.121094 51.617188 34.144531 51.695312 L 34.210938 51.929688 L 34.347656 52.394531 L 34.503906 52.851562 L 34.585938 53.082031 L 34.625 53.195312 L 34.671875 53.308594 L 34.855469 53.753906 L 34.945312 53.980469 L 35.050781 54.199219 L 35.261719 54.632812 L 35.3125 54.742188 L 35.371094 54.847656 L 35.488281 55.0625 L 35.71875 55.488281 L 35.972656 55.894531 L 36.101562 56.097656 C 36.140625 56.164062 36.183594 56.234375 36.234375 56.300781 L 36.519531 56.707031 L 36.664062 56.90625 L 36.699219 56.957031 L 36.71875 56.984375 C 36.707031 56.972656 36.71875 56.984375 36.714844 56.984375 C 36.722656 56.988281 36.730469 57 36.730469 57 L 36.804688 57.097656 C 36.902344 57.226562 37.003906 57.355469 37.105469 57.480469 C 37.3125 57.734375 37.523438 57.984375 37.738281 58.230469 C 38.167969 58.722656 38.621094 59.195312 39.09375 59.648438 C 39.566406 60.101562 40.054688 60.535156 40.574219 60.929688 C 41.09375 61.332031 41.636719 61.691406 42.210938 62.007812 L 42.246094 62.03125 L 42.257812 62.058594 C 42.425781 62.375 42.613281 62.683594 42.832031 62.96875 L 42.847656 62.992188 L 42.847656 63.011719 C 42.867188 63.300781 42.894531 63.59375 42.933594 63.882812 C 42.972656 64.175781 43.027344 64.464844 43.101562 64.75 " fill-opacity="1" fill-rule="nonzero"></path><path fill="#ef6836" d="M 48.648438 41.699219 L 49.621094 40.882812 L 49.867188 40.675781 L 50.113281 40.476562 L 51.113281 39.6875 L 51.617188 39.300781 C 51.957031 39.046875 52.292969 38.785156 52.636719 38.539062 L 53.667969 37.792969 L 54.710938 37.0625 C 55.058594 36.820312 55.410156 36.585938 55.761719 36.347656 L 56.289062 35.992188 L 56.824219 35.640625 C 57.179688 35.414062 57.53125 35.175781 57.890625 34.949219 L 58.96875 34.269531 L 60.050781 33.597656 C 60.410156 33.375 60.773438 33.15625 61.140625 32.9375 C 61.503906 32.722656 61.867188 32.503906 62.234375 32.292969 C 62.601562 32.078125 62.96875 31.863281 63.339844 31.65625 C 63.707031 31.445312 64.078125 31.234375 64.449219 31.027344 L 65.566406 30.417969 L 65.761719 30.3125 L 65.949219 30.449219 L 66.484375 30.847656 L 66.753906 31.050781 L 66.820312 31.101562 L 66.894531 31.164062 L 66.960938 31.214844 L 67.039062 31.289062 C 67.429688 31.671875 67.652344 32.136719 67.796875 32.601562 C 67.9375 33.066406 68.007812 33.539062 68.039062 34.003906 C 68.070312 34.46875 68.066406 34.929688 68.042969 35.386719 C 67.996094 36.300781 67.871094 37.203125 67.714844 38.089844 C 67.554688 38.980469 67.355469 39.859375 67.140625 40.734375 L 66.496094 43.332031 C 66.390625 43.765625 66.277344 44.199219 66.164062 44.632812 L 65.996094 45.285156 L 65.644531 46.582031 C 65.582031 46.796875 65.519531 47.011719 65.457031 47.226562 L 65.265625 47.871094 C 65.203125 48.089844 65.132812 48.300781 65.066406 48.515625 L 64.863281 49.160156 C 64.792969 49.375 64.714844 49.585938 64.644531 49.800781 L 64.421875 50.4375 C 64.34375 50.648438 64.261719 50.859375 64.179688 51.070312 C 64.097656 51.28125 64.019531 51.492188 63.933594 51.703125 L 63.664062 52.324219 L 63.53125 52.636719 C 63.507812 52.6875 63.488281 52.742188 63.460938 52.792969 L 63.386719 52.945312 L 63.089844 53.558594 L 62.941406 53.863281 L 62.773438 54.160156 L 62.445312 54.757812 C 62.390625 54.855469 62.328125 54.953125 62.269531 55.050781 L 62.085938 55.335938 C 61.964844 55.53125 61.84375 55.722656 61.71875 55.914062 L 61.324219 56.46875 C 61.191406 56.652344 61.0625 56.839844 60.914062 57.015625 L 60.484375 57.546875 C 60.414062 57.632812 60.34375 57.722656 60.265625 57.808594 L 59.578125 58.5625 C 59.503906 58.648438 59.421875 58.726562 59.339844 58.804688 L 59.09375 59.042969 L 58.609375 59.519531 C 58.441406 59.671875 58.269531 59.824219 58.097656 59.96875 C 57.410156 60.554688 56.699219 61.109375 55.96875 61.636719 C 55.234375 62.164062 54.476562 62.65625 53.699219 63.113281 C 53.308594 63.335938 52.90625 63.550781 52.503906 63.753906 C 52.097656 63.953125 51.6875 64.140625 51.265625 64.316406 C 50.847656 64.484375 50.417969 64.640625 49.984375 64.769531 C 49.546875 64.898438 49.105469 65.007812 48.65625 65.089844 L 48.820312 64.945312 C 48.703125 65.289062 48.578125 65.628906 48.445312 65.972656 C 48.3125 66.3125 48.175781 66.648438 48.027344 66.984375 C 47.953125 67.152344 47.878906 67.316406 47.796875 67.480469 C 47.71875 67.648438 47.636719 67.808594 47.546875 67.972656 C 47.460938 68.132812 47.367188 68.292969 47.273438 68.449219 C 47.175781 68.605469 47.078125 68.761719 46.96875 68.910156 C 46.859375 69.0625 46.746094 69.207031 46.625 69.347656 C 46.5 69.484375 46.371094 69.621094 46.230469 69.742188 C 46.089844 69.863281 45.941406 69.980469 45.78125 70.074219 C 45.621094 70.171875 45.453125 70.257812 45.277344 70.320312 C 45.101562 70.382812 44.917969 70.425781 44.734375 70.449219 L 44.59375 70.460938 L 44.457031 70.464844 L 44.390625 70.464844 C 44.359375 70.464844 44.34375 70.464844 44.316406 70.464844 C 44.273438 70.460938 44.222656 70.457031 44.179688 70.449219 C 43.808594 70.402344 43.457031 70.238281 43.191406 69.988281 C 43.195312 69.992188 42.976562 69.875 42.976562 69.875 C 42.972656 69.867188 42.730469 69.4375 42.730469 69.4375 L 42.996094 69.855469 C 42.992188 69.847656 43.214844 69.953125 43.214844 69.953125 C 43.492188 70.1875 43.839844 70.324219 44.191406 70.347656 C 44.234375 70.351562 44.273438 70.351562 44.320312 70.351562 C 44.34375 70.351562 44.371094 70.351562 44.386719 70.351562 L 44.453125 70.347656 L 44.589844 70.335938 L 44.714844 70.316406 C 44.890625 70.285156 45.058594 70.238281 45.222656 70.171875 C 45.382812 70.105469 45.535156 70.019531 45.683594 69.921875 C 45.828125 69.824219 45.960938 69.707031 46.085938 69.585938 C 46.214844 69.464844 46.332031 69.332031 46.441406 69.195312 C 46.550781 69.054688 46.65625 68.910156 46.753906 68.761719 C 46.847656 68.613281 46.941406 68.460938 47.027344 68.304688 C 47.113281 68.152344 47.199219 67.992188 47.277344 67.832031 C 47.355469 67.671875 47.429688 67.507812 47.5 67.34375 C 47.574219 67.179688 47.640625 67.015625 47.707031 66.847656 C 47.839844 66.515625 47.960938 66.179688 48.078125 65.835938 C 48.195312 65.496094 48.304688 65.152344 48.410156 64.808594 L 48.449219 64.691406 L 48.578125 64.664062 C 49.003906 64.574219 49.425781 64.457031 49.839844 64.320312 C 50.257812 64.179688 50.664062 64.019531 51.066406 63.84375 C 51.46875 63.664062 51.863281 63.46875 52.25 63.261719 C 52.636719 63.054688 53.019531 62.832031 53.394531 62.601562 C 54.148438 62.140625 54.875 61.644531 55.582031 61.113281 C 56.289062 60.582031 56.972656 60.023438 57.632812 59.4375 C 57.796875 59.289062 57.957031 59.140625 58.113281 58.992188 L 58.8125 58.292969 C 58.890625 58.214844 58.96875 58.136719 59.039062 58.054688 L 59.476562 57.5625 L 59.695312 57.320312 C 59.769531 57.238281 59.832031 57.148438 59.902344 57.0625 L 60.308594 56.546875 C 60.449219 56.378906 60.566406 56.195312 60.691406 56.015625 L 61.066406 55.480469 C 61.1875 55.296875 61.296875 55.105469 61.414062 54.921875 L 61.585938 54.640625 C 61.640625 54.546875 61.699219 54.453125 61.75 54.355469 L 62.0625 53.777344 L 62.214844 53.488281 L 62.359375 53.195312 L 62.644531 52.601562 L 62.71875 52.453125 C 62.738281 52.402344 62.761719 52.351562 62.78125 52.300781 L 62.910156 51.996094 L 63.171875 51.390625 C 63.25 51.1875 63.328125 50.980469 63.40625 50.773438 C 63.484375 50.566406 63.566406 50.363281 63.640625 50.15625 L 63.855469 49.527344 C 63.925781 49.320312 64 49.113281 64.066406 48.898438 L 64.265625 48.265625 C 64.328125 48.054688 64.398438 47.84375 64.460938 47.632812 L 64.644531 46.992188 C 64.703125 46.777344 64.765625 46.566406 64.828125 46.351562 L 65 45.707031 L 65.175781 45.066406 L 65.347656 44.421875 C 65.460938 43.988281 65.574219 43.558594 65.683594 43.128906 L 66.335938 40.53125 C 66.550781 39.671875 66.75 38.8125 66.910156 37.945312 C 67.070312 37.078125 67.203125 36.210938 67.261719 35.339844 C 67.289062 34.910156 67.296875 34.476562 67.273438 34.050781 C 67.25 33.625 67.191406 33.207031 67.082031 32.816406 C 67.023438 32.621094 66.949219 32.4375 66.859375 32.269531 C 66.839844 32.222656 66.8125 32.183594 66.789062 32.144531 L 66.75 32.082031 L 66.710938 32.027344 L 66.667969 31.96875 L 66.625 31.917969 L 66.578125 31.863281 L 66.535156 31.820312 L 66.496094 31.777344 L 66.429688 31.722656 L 66.382812 31.683594 L 66.375 31.675781 C 66.363281 31.667969 66.382812 31.683594 66.378906 31.679688 L 66.046875 31.425781 L 65.519531 31.015625 L 65.898438 31.046875 L 64.773438 31.628906 C 64.402344 31.828125 64.027344 32.027344 63.65625 32.226562 C 63.285156 32.429688 62.914062 32.632812 62.546875 32.835938 C 62.175781 33.039062 61.808594 33.25 61.441406 33.457031 L 60.339844 34.085938 L 59.242188 34.722656 L 58.148438 35.367188 C 57.785156 35.582031 57.425781 35.804688 57.066406 36.023438 L 56.523438 36.355469 L 55.984375 36.691406 C 55.625 36.914062 55.265625 37.132812 54.910156 37.363281 L 53.84375 38.050781 L 52.785156 38.75 C 52.429688 38.984375 52.085938 39.226562 51.738281 39.464844 L 51.214844 39.824219 L 50.699219 40.195312 L 49.921875 40.746094 L 49.667969 40.9375 L 48.648438 41.699219 " fill-opacity="1" fill-rule="nonzero"></path><path fill="#1c6434" d="M 44.402344 68.832031 C 44.207031 68.847656 44.371094 68.800781 44.15625 68.691406 C 43.390625 67.40625 44.179688 66.519531 44.703125 65.398438 C 44.757812 65.277344 44.816406 65.15625 44.875 65.027344 C 45.398438 63.871094 45.765625 62.628906 46.121094 61.429688 C 46.296875 60.835938 46.480469 60.21875 46.679688 59.621094 C 47.535156 57.054688 48.289062 54.347656 49.742188 51.972656 C 51.035156 49.859375 52.960938 48.277344 54.820312 46.746094 C 55.414062 46.257812 56.027344 45.753906 56.613281 45.238281 C 58.8125 43.304688 60.78125 41.039062 63.042969 38.242188 C 61.378906 40.527344 59.136719 43.023438 56.859375 45.308594 C 56.261719 45.910156 55.621094 46.5 55.003906 47.070312 C 53.195312 48.742188 51.320312 50.46875 50.179688 52.734375 C 48.785156 55.496094 47.867188 58.632812 47.164062 61.609375 C 47.121094 61.800781 47.066406 62.128906 47 62.542969 C 46.667969 64.539062 45.984375 68.691406 44.402344 68.832031 " fill-opacity="1" fill-rule="nonzero"></path><path fill="#ef6836" d="M 41.726562 57.121094 C 41.667969 55.292969 41.933594 53.308594 42.460938 51.457031 C 41.574219 49.863281 40.296875 48.484375 39.226562 47 C 37.390625 44.449219 35.925781 41.652344 34.59375 38.8125 C 36.09375 41.667969 37.765625 44.457031 39.824219 46.949219 C 40.796875 48.125 41.882812 49.226562 42.777344 50.457031 C 42.980469 49.871094 43.207031 49.308594 43.460938 48.773438 C 43.824219 48.015625 44.367188 47.226562 45.042969 46.417969 C 40.996094 41.8125 34.628906 36.992188 34.628906 36.992188 C 34.628906 36.992188 33.695312 37.488281 34.109375 42.382812 C 34.65625 48.855469 34.976562 52.667969 37.769531 56.253906 C 38.738281 57.496094 40.453125 59.28125 42.234375 60.359375 C 41.9375 59.421875 41.765625 58.332031 41.726562 57.121094 " fill-opacity="1" fill-rule="nonzero"></path><path fill="#1c6434" d="M 65.53125 32.878906 C 65.53125 32.878906 47.382812 42.539062 44.230469 49.140625 C 41.941406 53.941406 41.859375 60.964844 44.980469 62.902344 C 45.042969 62.941406 45.109375 62.976562 45.171875 63.011719 C 45.542969 61.882812 45.847656 60.722656 46.222656 59.59375 C 47.089844 56.988281 48.054688 54.285156 49.496094 51.925781 C 51.210938 49.128906 53.964844 47.304688 56.382812 45.175781 C 59.695312 42.261719 62.550781 38.867188 65.183594 35.339844 C 62.78125 38.878906 60.199219 42.332031 57.175781 45.371094 C 54.828125 47.726562 52.035156 49.75 50.511719 52.773438 C 49.125 55.527344 48.328125 58.640625 47.625 61.628906 C 47.550781 61.9375 47.453125 62.617188 47.308594 63.445312 C 50.65625 63.304688 54.964844 60.183594 57.140625 58.15625 C 61.679688 53.925781 62.9375 48.859375 65.070312 40.257812 C 66.683594 33.75 65.53125 32.878906 65.53125 32.878906 " fill-opacity="1" fill-rule="nonzero"></path></svg>