<svg xmlns="http://www.w3.org/2000/svg" xmlns:xlink="http://www.w3.org/1999/xlink" width="128" viewBox="0 0 96 95.999999" height="128" preserveAspectRatio="xMidYMid meet"><defs><clipPath id="6aaece87af"><path d="M 14.90625 9.601562 L 80.90625 9.601562 L 80.90625 86.101562 L 14.90625 86.101562 Z M 14.90625 9.601562 " clip-rule="nonzero"></path></clipPath><clipPath id="5b98726f1e"><path d="M 29 9.601562 L 78 9.601562 L 78 52 L 29 52 Z M 29 9.601562 " clip-rule="nonzero"></path></clipPath><clipPath id="2748e25cb4"><path d="M 20 9.601562 L 78 9.601562 L 78 82 L 20 82 Z M 20 9.601562 " clip-rule="nonzero"></path></clipPath></defs><g clip-path="url(#6aaece87af)"><path fill="#1c6c6c" d="M 80.890625 75.933594 L 80.890625 76.023438 C 80.890625 81.585938 76.371094 86.101562 70.804688 86.101562 L 25.007812 86.101562 C 19.441406 86.085938 14.921875 81.585938 14.921875 76.023438 L 14.921875 75.933594 C 14.921875 70.371094 19.441406 65.859375 25.007812 65.859375 L 29.125 65.859375 C 28.507812 65.210938 27.921875 64.535156 27.367188 63.824219 C 23.558594 59.019531 21.292969 52.933594 21.292969 46.324219 C 21.292969 34.417969 28.648438 24.234375 39.070312 20.042969 C 39.238281 19.644531 39.578125 19.304688 40.089844 19.210938 C 38.667969 18.195312 39.964844 15.914062 41.585938 16.609375 C 40.828125 14.960938 43.234375 13.589844 44.25 15.207031 C 44.25 15.207031 44.25 15.222656 44.265625 15.222656 C 44.265625 15.222656 44.265625 15.207031 44.265625 15.207031 C 44.296875 13.25 47.242188 13.25 47.289062 15.207031 C 48.308594 13.589844 50.710938 14.976562 49.957031 16.609375 C 51.097656 16.117188 52.085938 17.132812 52.054688 18.117188 C 52.761719 18.179688 53.472656 18.273438 54.183594 18.378906 C 54.011719 15.054688 57.066406 12.171875 61.335938 10.894531 C 61.429688 10.863281 61.539062 10.832031 61.628906 10.800781 C 61.953125 10.710938 62.277344 10.632812 62.601562 10.554688 C 64.636719 10.125 66.609375 9.894531 68.308594 9.785156 C 68.414062 9.769531 68.507812 9.769531 68.613281 9.769531 C 71.144531 9.628906 73.039062 9.722656 73.625 9.769531 L 73.703125 9.675781 C 73.765625 9.617188 73.859375 9.601562 73.917969 9.660156 C 73.980469 9.722656 73.996094 9.816406 73.933594 9.878906 L 73.859375 9.96875 C 73.996094 10.570312 74.445312 12.621094 74.691406 15.363281 C 74.691406 15.40625 74.691406 15.453125 74.707031 15.484375 C 74.707031 15.546875 74.722656 15.609375 74.722656 15.667969 C 74.859375 17.273438 74.921875 19.089844 74.828125 20.984375 C 74.796875 21.445312 74.769531 21.894531 74.707031 22.324219 C 74.691406 22.433594 74.675781 22.523438 74.660156 22.632812 C 74.257812 25.144531 73.289062 27.332031 71.882812 28.761719 C 73.179688 30.394531 74.304688 32.183594 75.214844 34.09375 L 77.328125 34.09375 C 77.421875 34.09375 77.480469 34.15625 77.480469 34.246094 C 77.480469 34.292969 77.449219 34.339844 77.421875 34.371094 C 77.421875 34.371094 76.925781 35.046875 76.0625 36.050781 C 77.296875 39.222656 77.976562 42.6875 77.976562 46.308594 C 77.976562 53.886719 75 60.773438 70.140625 65.84375 L 70.804688 65.84375 C 76.371094 65.859375 80.890625 70.371094 80.890625 75.933594 Z M 80.890625 75.933594 " fill-opacity="1" fill-rule="nonzero"></path></g><g clip-path="url(#5b98726f1e)"><path fill="#4b8d3d" d="M 53.457031 51.023438 C 51.53125 51.023438 49.925781 50.667969 49.324219 50.515625 L 60.703125 42.121094 C 62.03125 44.015625 62.261719 46.878906 59.824219 49.003906 C 59.796875 49.035156 59.75 49.066406 59.703125 49.097656 C 59.347656 49.390625 58.945312 49.667969 58.53125 49.898438 L 59.425781 48.40625 L 59.148438 48.449219 C 57.589844 48.695312 56.125 49.238281 54.785156 50.054688 C 54.335938 50.34375 53.890625 50.667969 53.457031 51.023438 Z M 38.222656 51.023438 C 36.480469 51.023438 34.953125 50.730469 33.671875 50.160156 C 33.042969 49.882812 32.472656 49.515625 31.976562 49.097656 C 31.929688 49.066406 31.898438 49.035156 31.855469 49.003906 C 29.402344 46.878906 29.648438 44.015625 30.976562 42.121094 L 42.355469 50.515625 C 41.769531 50.667969 40.148438 51.023438 38.222656 51.023438 Z M 49.140625 50.269531 C 49.203125 49.128906 49.679688 43.273438 53.550781 40.765625 C 53.597656 40.734375 53.640625 40.703125 53.671875 40.6875 C 54.582031 40.117188 55.539062 39.824219 56.511719 39.824219 C 56.726562 39.824219 56.941406 39.839844 57.144531 39.871094 C 57.234375 39.886719 57.34375 39.902344 57.449219 39.917969 C 58.636719 40.164062 59.734375 40.839844 60.519531 41.859375 Z M 31.175781 41.871094 C 32.191406 40.578125 33.644531 39.839844 35.183594 39.839844 C 36.15625 39.839844 37.097656 40.132812 38.023438 40.703125 C 38.066406 40.734375 38.113281 40.75 38.144531 40.777344 C 39.855469 41.886719 41.105469 43.753906 41.878906 46.324219 C 42.402344 48.113281 42.523438 49.683594 42.554688 50.269531 Z M 64.699219 43.320312 C 62.601562 43.320312 60.996094 42.335938 60.195312 40.53125 C 59.546875 39.070312 59.65625 37.746094 60.535156 36.574219 C 61.011719 35.941406 61.289062 35.1875 61.335938 34.402344 L 63.726562 34.402344 L 69.15625 42.058594 C 67.628906 42.890625 66.101562 43.320312 64.699219 43.320312 Z M 69.417969 41.917969 C 69.417969 41.917969 69.417969 41.902344 69.417969 41.917969 L 64.097656 34.417969 L 69.988281 34.417969 L 73.289062 38.882812 C 73.289062 38.882812 73.289062 38.882812 73.304688 38.898438 C 72.46875 39.683594 71.605469 40.394531 70.757812 41.042969 C 70.34375 41.347656 69.878906 41.65625 69.417969 41.917969 Z M 50.789062 40.179688 C 49.570312 40.179688 48.539062 39.960938 48.152344 39.855469 L 55.570312 34.386719 C 56.402344 35.617188 56.542969 37.484375 54.96875 38.855469 C 54.9375 38.867188 54.921875 38.898438 54.890625 38.914062 C 53.890625 39.746094 52.515625 40.179688 50.789062 40.179688 Z M 40.8125 40.179688 C 39.101562 40.179688 37.730469 39.746094 36.726562 38.914062 C 36.695312 38.898438 36.679688 38.867188 36.648438 38.855469 C 35.078125 37.484375 35.199219 35.617188 36.03125 34.386719 L 43.449219 39.855469 C 43.078125 39.960938 42.03125 40.179688 40.8125 40.179688 C 40.828125 40.179688 40.828125 40.179688 40.8125 40.179688 Z M 47.96875 39.609375 C 48.03125 38.5625 48.414062 35.035156 50.851562 33.460938 C 50.882812 33.445312 50.914062 33.429688 50.929688 33.414062 C 51.53125 33.046875 52.148438 32.859375 52.777344 32.859375 C 53.765625 32.859375 54.707031 33.339844 55.371094 34.15625 Z M 36.234375 34.140625 C 36.894531 33.308594 37.835938 32.847656 38.824219 32.847656 C 39.457031 32.847656 40.089844 33.03125 40.675781 33.398438 C 40.703125 33.414062 40.734375 33.429688 40.75 33.445312 C 43.1875 35.019531 43.574219 38.546875 43.636719 39.59375 Z M 70.386719 34.417969 L 77.328125 34.417969 C 77.359375 34.417969 77.390625 34.402344 77.421875 34.386719 L 77.433594 34.402344 C 77.433594 34.402344 76.941406 35.078125 76.078125 36.082031 C 75.277344 36.988281 74.445312 37.882812 73.566406 38.699219 Z M 49.757812 31.011719 C 48.847656 31.011719 48.074219 30.859375 47.691406 30.765625 L 53.582031 26.421875 C 54.226562 27.40625 54.320312 28.871094 53.085938 29.964844 L 53.027344 30.011719 C 52.222656 30.671875 51.128906 31.011719 49.757812 31.011719 Z M 41.800781 31.011719 C 40.425781 31.011719 39.332031 30.671875 38.546875 30.011719 C 38.53125 29.996094 38.5 29.980469 38.484375 29.964844 C 37.234375 28.886719 37.328125 27.40625 37.976562 26.421875 L 43.867188 30.765625 C 43.496094 30.859375 42.710938 31.011719 41.800781 31.011719 Z M 67.859375 30.566406 C 67.335938 30.566406 66.796875 30.488281 66.257812 30.335938 C 64.40625 29.8125 63.265625 28.6875 62.878906 26.992188 C 62.648438 25.992188 62.125 25.128906 61.367188 24.464844 L 63.386719 22.125 C 63.402344 22.125 63.402344 22.125 63.417969 22.125 L 74.660156 22.632812 C 74.257812 25.175781 73.273438 27.347656 71.882812 28.777344 C 70.726562 29.949219 69.339844 30.566406 67.859375 30.566406 Z M 47.503906 30.519531 C 47.550781 29.6875 47.890625 26.898438 49.804688 25.652344 L 49.863281 25.605469 C 50.34375 25.3125 50.835938 25.160156 51.34375 25.160156 C 52.117188 25.160156 52.871094 25.527344 53.394531 26.160156 Z M 38.160156 26.175781 C 38.683594 25.527344 39.441406 25.160156 40.210938 25.160156 C 40.71875 25.160156 41.214844 25.3125 41.691406 25.605469 L 41.753906 25.652344 C 43.664062 26.882812 44.003906 29.6875 44.050781 30.519531 Z M 61.121094 24.265625 C 60.382812 23.695312 59.503906 23.371094 58.5625 23.308594 C 56.804688 23.1875 55.507812 22.246094 54.707031 20.507812 C 54.382812 19.8125 54.199219 19.089844 54.167969 18.378906 C 54.011719 15.191406 56.820312 12.25 61.320312 10.894531 L 63.25 21.832031 Z M 63.632812 21.832031 L 68.832031 15.792969 C 68.847656 15.792969 68.847656 15.792969 68.863281 15.792969 L 74.722656 15.652344 C 74.875 17.503906 74.921875 19.289062 74.828125 20.984375 C 74.796875 21.445312 74.769531 21.894531 74.707031 22.324219 Z M 63.480469 21.507812 L 61.597656 10.800781 C 61.90625 10.710938 62.246094 10.632812 62.570312 10.554688 C 64.359375 10.171875 66.285156 9.90625 68.292969 9.785156 C 68.398438 9.769531 68.492188 9.769531 68.601562 9.769531 C 69.464844 9.722656 70.34375 9.691406 71.207031 9.691406 C 72.4375 9.691406 73.304688 9.738281 73.609375 9.769531 L 68.96875 15.144531 L 68.585938 9.769531 C 68.492188 9.769531 68.382812 9.785156 68.277344 9.785156 L 68.675781 15.46875 Z M 73.859375 9.96875 C 73.996094 10.539062 74.445312 12.605469 74.691406 15.363281 L 74.707031 15.484375 L 74.691406 15.363281 L 69.09375 15.484375 Z M 73.859375 9.96875 " fill-opacity="1" fill-rule="nonzero"></path></g><path fill="#edc0c9" d="M 59.039062 60.066406 L 30.21875 60.066406 C 30.21875 60.066406 32.007812 53.378906 38.082031 52.78125 C 41.089844 52.488281 43.710938 53.257812 45.609375 54.121094 C 45.714844 54.164062 45.824219 54.210938 45.917969 54.257812 C 47.675781 55.089844 48.722656 55.953125 48.722656 55.953125 L 51.3125 53.226562 L 51.960938 52.53125 L 52.964844 51.46875 C 53.117188 51.316406 53.289062 51.175781 53.457031 51.039062 C 53.875 50.683594 54.320312 50.359375 54.800781 50.066406 C 56.109375 49.25 57.589844 48.695312 59.164062 48.464844 L 59.441406 48.421875 L 58.53125 49.914062 L 57.449219 51.6875 L 57.144531 52.195312 L 56.09375 53.933594 L 55.847656 54.335938 L 56.265625 53.875 L 57.128906 52.933594 L 57.4375 52.59375 L 58.238281 51.730469 C 58.683594 51.238281 59.179688 50.808594 59.6875 50.40625 C 60.117188 50.082031 60.566406 49.789062 61.042969 49.527344 C 62.339844 48.820312 63.773438 48.375 65.253906 48.234375 L 65.917969 48.171875 L 64.066406 51.222656 C 64.234375 51.117188 64.40625 51.023438 64.589844 50.945312 C 65.746094 50.359375 67.011719 50.066406 68.308594 50.066406 C 68.539062 50.066406 68.769531 50.082031 68.984375 50.097656 C 69.339844 50.128906 69.679688 50.175781 70.035156 50.253906 L 70.972656 50.453125 Z M 59.039062 60.066406 " fill-opacity="1" fill-rule="nonzero"></path><path fill="#ec6f40" d="M 43.789062 51.175781 L 45.625 51.671875 L 45.625 52.519531 Z M 57.144531 52.902344 L 56.277344 53.84375 Z M 70.035156 50.207031 C 69.695312 50.128906 69.339844 50.082031 68.984375 50.054688 C 69.339844 50.082031 69.695312 50.144531 70.035156 50.207031 L 70.972656 50.40625 Z M 45.933594 44.722656 L 45.933594 47.878906 C 46.023438 47.742188 46.117188 47.605469 46.195312 47.464844 C 46.796875 46.464844 47.210938 45.355469 47.429688 44.199219 C 47.429688 44.199219 46.886719 44.382812 45.933594 44.722656 Z M 64.082031 51.191406 C 64.25 51.085938 64.421875 50.992188 64.605469 50.914062 C 64.421875 50.992188 64.25 51.085938 64.082031 51.191406 Z M 45.917969 54.257812 C 47.675781 55.089844 48.722656 55.953125 48.722656 55.953125 L 51.3125 53.226562 L 47.179688 52.101562 L 45.980469 52.996094 C 45.964844 53.011719 45.949219 53.011719 45.933594 53.027344 Z M 51.960938 52.519531 L 52.964844 51.453125 C 53.117188 51.300781 53.289062 51.160156 53.457031 51.023438 C 53.289062 51.160156 53.132812 51.300781 52.964844 51.453125 C 52.609375 51.792969 52.285156 52.148438 51.960938 52.519531 Z M 45.917969 52.640625 L 46.796875 51.992188 L 45.917969 51.761719 Z M 58.253906 51.703125 L 57.464844 52.5625 L 58.253906 51.703125 C 58.699219 51.207031 59.195312 50.777344 59.703125 50.375 C 59.195312 50.777344 58.699219 51.207031 58.253906 51.703125 Z M 56.09375 53.917969 L 55.847656 54.320312 Z M 61.058594 49.5 C 62.355469 48.789062 63.789062 48.34375 65.269531 48.203125 L 65.933594 48.144531 L 65.269531 48.203125 C 63.789062 48.359375 62.355469 48.789062 61.058594 49.5 Z M 45.625 44.847656 C 44.667969 45.199219 43.371094 45.691406 41.863281 46.324219 C 42.402344 48.128906 42.523438 49.730469 42.539062 50.269531 L 43.125 50.699219 L 43.882812 50.097656 C 44.527344 49.574219 45.113281 48.972656 45.609375 48.328125 Z M 38.082031 52.78125 C 41.089844 52.488281 43.710938 53.257812 45.609375 54.121094 L 45.609375 52.917969 L 42.957031 50.960938 L 42.847656 50.929688 L 42.878906 50.898438 L 42.355469 50.515625 C 41.414062 50.761719 37.113281 51.703125 33.671875 50.160156 C 33.320312 50.34375 32.980469 50.53125 32.625 50.730469 C 28.214844 53.164062 27.351562 59.328125 27.335938 63.839844 C 27.890625 64.546875 28.476562 65.226562 29.09375 65.875 L 41.445312 65.875 L 40.074219 60.082031 L 59.039062 60.082031 L 30.21875 60.082031 C 30.21875 60.066406 32.007812 53.378906 38.082031 52.78125 Z M 40.398438 22.1875 C 40.472656 22.1875 40.566406 22.1875 40.644531 22.1875 C 40.734375 22.1875 40.84375 22.171875 40.9375 22.171875 L 41.878906 22.171875 C 43.019531 22.171875 43.972656 22.988281 44.207031 24.066406 L 47.320312 24.066406 C 47.550781 22.988281 48.507812 22.171875 49.648438 22.171875 L 50.589844 22.171875 C 50.695312 22.1875 50.789062 22.1875 50.882812 22.1875 C 50.960938 22.1875 51.050781 22.1875 51.128906 22.1875 C 52.964844 22.125 53.054688 19.535156 51.4375 19.195312 C 51.839844 18.90625 52.023438 18.503906 52.039062 18.101562 C 52.085938 17.101562 51.097656 16.101562 49.941406 16.59375 C 50.695312 14.945312 48.292969 13.574219 47.273438 15.191406 C 47.226562 13.234375 44.28125 13.234375 44.25 15.191406 C 44.25 15.191406 44.25 15.207031 44.25 15.207031 C 44.25 15.207031 44.25 15.191406 44.234375 15.191406 C 43.21875 13.574219 40.8125 14.960938 41.570312 16.59375 C 39.964844 15.902344 38.667969 18.179688 40.074219 19.195312 C 39.5625 19.304688 39.226562 19.628906 39.054688 20.027344 C 38.699219 20.921875 39.148438 22.15625 40.398438 22.1875 Z M 40.398438 22.1875 " fill-opacity="1" fill-rule="nonzero"></path><g clip-path="url(#2748e25cb4)"><path fill="#efab24" d="M 57.144531 52.902344 L 57.144531 52.179688 L 57.449219 51.671875 L 57.449219 52.5625 Z M 77.3125 34.109375 L 57.449219 34.109375 L 57.449219 33.664062 C 57.449219 30.644531 58.546875 27.714844 60.519531 25.4375 L 61.351562 24.464844 L 63.371094 22.125 C 63.386719 22.125 63.386719 22.125 63.402344 22.125 L 74.644531 22.632812 C 74.660156 22.523438 74.675781 22.433594 74.691406 22.324219 L 63.617188 21.816406 L 68.832031 15.792969 C 68.847656 15.792969 68.847656 15.792969 68.863281 15.792969 L 74.722656 15.652344 C 74.722656 15.59375 74.707031 15.53125 74.707031 15.46875 C 74.707031 15.421875 74.707031 15.375 74.691406 15.347656 L 69.09375 15.484375 L 73.859375 9.96875 L 73.933594 9.878906 C 73.996094 9.816406 73.980469 9.707031 73.917969 9.660156 C 73.859375 9.601562 73.75 9.617188 73.703125 9.675781 L 73.625 9.769531 L 68.984375 15.144531 L 68.601562 9.769531 C 68.492188 9.769531 68.398438 9.785156 68.292969 9.785156 L 68.691406 15.46875 L 63.496094 21.507812 L 61.613281 10.800781 C 61.507812 10.832031 61.414062 10.863281 61.320312 10.894531 L 63.234375 21.816406 L 61.121094 24.265625 L 60.289062 25.234375 C 58.269531 27.578125 57.15625 30.582031 57.15625 33.675781 L 57.15625 39.902344 C 57.265625 39.917969 57.359375 39.933594 57.464844 39.949219 L 57.464844 34.433594 L 63.710938 34.433594 L 69.140625 42.089844 C 69.230469 42.042969 69.324219 41.980469 69.417969 41.933594 C 69.417969 41.933594 69.417969 41.917969 69.402344 41.917969 L 64.097656 34.433594 L 69.988281 34.433594 L 73.289062 38.898438 C 73.289062 38.898438 73.289062 38.914062 73.304688 38.914062 C 73.378906 38.839844 73.457031 38.777344 73.535156 38.699219 L 70.371094 34.433594 L 77.3125 34.433594 C 77.34375 34.433594 77.375 34.417969 77.40625 34.402344 C 77.433594 34.371094 77.464844 34.324219 77.464844 34.277344 C 77.464844 34.171875 77.40625 34.109375 77.3125 34.109375 Z M 30.992188 42.121094 L 42.371094 50.515625 L 42.894531 50.898438 L 42.972656 50.960938 L 45.609375 52.917969 L 45.609375 54.121094 C 45.714844 54.164062 45.824219 54.210938 45.917969 54.257812 L 45.917969 53.011719 C 45.933594 53.011719 45.949219 52.996094 45.964844 52.980469 L 47.167969 52.085938 L 49.308594 50.5 L 60.6875 42.105469 C 60.75 42.058594 60.765625 41.949219 60.71875 41.886719 C 60.675781 41.828125 60.566406 41.8125 60.503906 41.859375 L 49.125 50.253906 L 46.796875 51.992188 L 45.917969 52.640625 L 45.917969 41.503906 L 48.121094 39.871094 L 55.539062 34.402344 C 55.601562 34.355469 55.617188 34.246094 55.570312 34.1875 C 55.523438 34.125 55.414062 34.109375 55.355469 34.15625 L 47.9375 39.625 L 45.917969 41.117188 L 45.933594 32.058594 L 47.675781 30.78125 L 53.566406 26.4375 C 53.628906 26.390625 53.640625 26.285156 53.597656 26.222656 C 53.550781 26.160156 53.441406 26.144531 53.378906 26.191406 L 47.488281 30.535156 L 45.902344 31.707031 L 45.902344 26.296875 C 47.105469 26.253906 48.058594 25.28125 48.058594 24.066406 L 43.605469 24.066406 C 43.605469 25.21875 44.484375 26.175781 45.609375 26.285156 L 45.609375 31.660156 L 44.066406 30.519531 L 38.175781 26.175781 C 38.113281 26.128906 38.007812 26.144531 37.960938 26.207031 C 37.914062 26.269531 37.929688 26.375 37.992188 26.421875 L 43.882812 30.765625 L 45.609375 32.042969 L 45.609375 33.894531 C 45.609375 33.925781 45.625 33.96875 45.65625 33.984375 L 45.640625 41.054688 L 43.648438 39.59375 L 36.234375 34.125 C 36.171875 34.078125 36.0625 34.09375 36.015625 34.15625 C 35.972656 34.214844 35.988281 34.324219 36.046875 34.371094 L 43.464844 39.839844 L 45.640625 41.441406 L 45.640625 52.519531 L 43.804688 51.160156 L 43.15625 50.683594 L 42.570312 50.253906 L 31.191406 41.859375 C 31.128906 41.8125 31.019531 41.828125 30.976562 41.886719 C 30.898438 41.964844 30.914062 42.074219 30.992188 42.121094 Z M 28.632812 75.222656 L 28.707031 76.316406 C 28.707031 76.332031 28.707031 76.347656 28.707031 76.347656 L 28.660156 76.886719 L 28.585938 77.441406 C 28.585938 77.457031 28.585938 77.472656 28.570312 77.472656 L 28.414062 77.996094 L 28.230469 78.519531 C 28.230469 78.535156 28.214844 78.550781 28.214844 78.566406 L 27.9375 79.042969 C 27.9375 79.058594 27.921875 79.058594 27.921875 79.074219 L 27.582031 79.507812 C 27.566406 79.523438 27.566406 79.523438 27.550781 79.539062 L 27.136719 79.90625 L 26.703125 80.261719 C 26.6875 80.277344 26.6875 80.277344 26.671875 80.277344 L 26.195312 80.539062 C 26.179688 80.539062 26.164062 80.554688 26.148438 80.554688 L 25.625 80.738281 C 25.609375 80.738281 25.59375 80.738281 25.578125 80.753906 L 25.039062 80.832031 C 25.023438 80.832031 25.023438 80.832031 25.007812 80.832031 L 23.882812 80.863281 L 23.3125 80.863281 L 22.742188 80.878906 L 22.15625 80.863281 L 21.585938 80.878906 L 21 80.878906 L 20.414062 80.847656 C 20.351562 80.847656 20.273438 80.816406 20.242188 80.753906 C 20.195312 80.691406 20.179688 80.632812 20.195312 80.570312 L 20.320312 80.078125 L 20.367188 79.554688 L 20.441406 79 L 20.613281 77.394531 L 20.613281 76.855469 L 20.628906 76.316406 L 20.597656 75.777344 L 20.566406 74.683594 L 20.535156 74.160156 L 20.441406 73.636719 L 20.367188 73.082031 L 20.304688 72.542969 L 20.179688 72.003906 C 20.164062 71.925781 20.179688 71.867188 20.226562 71.804688 C 20.273438 71.742188 20.335938 71.710938 20.414062 71.726562 L 21 71.757812 L 21.570312 71.773438 L 22.140625 71.742188 C 22.140625 71.742188 22.15625 71.742188 22.15625 71.742188 L 23.328125 71.773438 L 23.898438 71.773438 L 24.46875 71.742188 C 24.484375 71.742188 24.484375 71.742188 24.5 71.742188 L 25.039062 71.789062 C 25.054688 71.789062 25.054688 71.789062 25.054688 71.789062 L 25.59375 71.898438 C 25.609375 71.898438 25.625 71.898438 25.625 71.914062 L 26.132812 72.097656 C 26.148438 72.097656 26.148438 72.097656 26.164062 72.113281 L 26.65625 72.359375 C 26.671875 72.375 26.6875 72.375 26.703125 72.390625 L 27.121094 72.742188 L 27.535156 73.113281 C 27.550781 73.128906 27.566406 73.144531 27.566406 73.160156 L 27.875 73.605469 C 27.875 73.621094 27.890625 73.621094 27.890625 73.636719 L 28.121094 74.128906 C 28.121094 74.128906 28.121094 74.144531 28.136719 74.144531 L 28.507812 75.179688 C 28.632812 75.195312 28.632812 75.207031 28.632812 75.222656 Z M 26.273438 75.222656 L 26.257812 74.683594 L 26.148438 74.160156 L 26.023438 73.652344 L 25.855469 73.175781 L 25.546875 72.820312 L 25.144531 72.589844 L 24.914062 72.558594 L 24.484375 72.667969 L 24.097656 72.898438 L 23.773438 73.238281 L 23.527344 73.652344 L 23.359375 74.128906 L 23.203125 74.609375 L 23.109375 75.101562 L 23.050781 75.59375 L 23.050781 76.101562 L 23.019531 76.640625 L 23.066406 77.164062 C 23.066406 77.164062 23.066406 77.179688 23.066406 77.179688 L 23.050781 77.71875 L 23.019531 78.273438 L 23.003906 78.796875 L 23.082031 79.277344 L 23.171875 79.691406 L 23.417969 79.984375 L 23.757812 80.109375 L 24.207031 80 L 24.605469 79.691406 L 24.992188 79.320312 L 25.316406 78.890625 L 25.59375 78.414062 L 25.839844 77.933594 L 25.996094 77.410156 L 26.132812 76.871094 L 26.195312 76.316406 L 26.242188 75.761719 Z M 53.980469 80.539062 C 54.027344 80.617188 54.011719 80.691406 53.980469 80.769531 C 53.949219 80.847656 53.859375 80.894531 53.78125 80.878906 L 53.210938 80.863281 L 52.640625 80.910156 C 52.640625 80.910156 52.625 80.910156 52.625 80.910156 L 52.039062 80.910156 C 52.039062 80.910156 52.023438 80.910156 52.023438 80.910156 L 51.453125 80.863281 L 50.882812 80.863281 L 50.3125 80.894531 C 50.25 80.894531 50.171875 80.878906 50.125 80.816406 C 50.082031 80.769531 50.066406 80.691406 50.066406 80.632812 L 50.140625 80.046875 L 50.15625 79.492188 L 50.082031 78.9375 L 49.910156 77.949219 L 48.984375 77.949219 L 48.429688 77.980469 C 48.429688 77.980469 48.414062 77.980469 48.414062 77.980469 L 47.304688 77.949219 L 46.949219 77.964844 L 46.886719 78.289062 L 46.886719 78.796875 L 46.933594 79.292969 L 47.074219 79.753906 L 47.335938 80.136719 L 47.722656 80.460938 C 47.796875 80.523438 47.828125 80.632812 47.78125 80.722656 C 47.753906 80.816406 47.660156 80.878906 47.566406 80.878906 L 46.996094 80.863281 L 46.441406 80.878906 C 46.441406 80.878906 46.425781 80.878906 46.425781 80.878906 L 45.855469 80.863281 L 45.285156 80.894531 C 45.269531 80.894531 45.269531 80.894531 45.253906 80.894531 L 44.808594 80.863281 L 44.234375 80.878906 L 43.664062 80.878906 L 43.09375 80.863281 L 42.523438 80.863281 L 41.382812 80.847656 C 41.261719 80.847656 41.152344 80.738281 41.152344 80.617188 L 41.136719 80.078125 L 41.058594 79.523438 L 40.953125 78.96875 L 40.8125 78.445312 L 40.179688 77.027344 L 39.855469 77.042969 C 39.839844 77.042969 39.839844 77.042969 39.824219 77.042969 L 39.578125 77.027344 L 39.578125 77.335938 L 39.640625 77.859375 C 39.640625 77.875 39.640625 77.875 39.640625 77.890625 L 39.65625 78.429688 L 39.839844 79.492188 L 39.902344 80.03125 L 40.011719 80.539062 C 40.027344 80.601562 40.011719 80.675781 39.964844 80.722656 C 39.917969 80.769531 39.855469 80.816406 39.78125 80.816406 L 38.683594 80.832031 L 38.144531 80.863281 C 38.144531 80.863281 38.144531 80.863281 38.128906 80.863281 C 38.128906 80.863281 38.113281 80.863281 38.113281 80.863281 L 37.574219 80.816406 L 37.035156 80.847656 C 36.972656 80.847656 36.894531 80.816406 36.851562 80.769531 C 36.804688 80.722656 36.789062 80.648438 36.789062 80.585938 L 36.882812 80.046875 L 37.003906 79.507812 L 37.066406 78.984375 C 37.066406 78.984375 37.066406 78.96875 37.066406 78.96875 L 37.160156 78.445312 L 37.175781 77.921875 C 37.175781 77.921875 37.175781 77.90625 37.175781 77.90625 L 37.234375 77.382812 L 37.234375 76.839844 C 37.234375 76.839844 37.234375 76.828125 37.234375 76.828125 L 37.265625 76.289062 L 37.234375 75.207031 L 37.160156 74.128906 L 37.050781 73.066406 L 36.851562 72.097656 L 36.589844 72.527344 L 36.386719 72.992188 L 36.265625 73.5 L 36.171875 74.007812 L 36.140625 74.53125 C 36.140625 74.53125 36.140625 74.546875 36.140625 74.546875 L 36.0625 75.070312 L 36.0625 76.132812 C 36.0625 76.132812 36.0625 76.148438 36.0625 76.148438 L 36.015625 76.671875 L 36.03125 77.195312 L 36.03125 77.75 C 36.03125 77.765625 36.03125 77.765625 36.03125 77.78125 L 35.957031 78.320312 C 35.957031 78.335938 35.957031 78.335938 35.957031 78.351562 L 35.816406 78.875 C 35.816406 78.890625 35.816406 78.890625 35.800781 78.90625 L 35.585938 79.398438 C 35.585938 79.398438 35.585938 79.414062 35.570312 79.414062 L 35.308594 79.890625 C 35.292969 79.90625 35.292969 79.921875 35.277344 79.9375 L 34.90625 80.324219 C 34.890625 80.339844 34.890625 80.339844 34.875 80.355469 L 34.445312 80.675781 C 34.429688 80.691406 34.414062 80.691406 34.398438 80.707031 L 33.890625 80.910156 C 33.875 80.910156 33.859375 80.925781 33.84375 80.925781 L 33.304688 81 L 32.765625 81.0625 C 32.75 81.0625 32.75 81.0625 32.734375 81.0625 C 32.71875 81.0625 32.71875 81.0625 32.703125 81.0625 L 32.164062 80.984375 C 32.148438 80.984375 32.148438 80.984375 32.132812 80.984375 L 31.605469 80.832031 C 31.605469 80.832031 31.59375 80.832031 31.59375 80.832031 L 31.082031 80.632812 C 31.066406 80.632812 31.050781 80.617188 31.035156 80.617188 L 30.574219 80.324219 C 30.558594 80.308594 30.542969 80.308594 30.527344 80.292969 L 30.15625 79.890625 L 29.789062 79.476562 C 29.773438 79.460938 29.757812 79.445312 29.757812 79.429688 L 29.511719 78.9375 C 29.511719 78.9375 29.511719 78.921875 29.511719 78.921875 L 29.308594 78.414062 C 29.308594 78.398438 29.292969 78.382812 29.292969 78.367188 L 29.203125 77.828125 C 29.203125 77.8125 29.203125 77.8125 29.203125 77.796875 L 29.171875 77.257812 L 29.15625 76.71875 L 29.171875 76.179688 L 29.125 75.65625 C 29.125 75.65625 29.125 75.640625 29.125 75.640625 L 29.125 75.132812 L 29.0625 74.625 C 29.0625 74.609375 29.0625 74.609375 29.0625 74.59375 L 29.0625 74.070312 L 29 73.558594 L 28.894531 73.050781 L 28.816406 72.511719 L 28.707031 71.988281 C 28.691406 71.925781 28.707031 71.851562 28.753906 71.789062 C 28.800781 71.726562 28.878906 71.695312 28.941406 71.710938 L 30.050781 71.710938 L 30.605469 71.726562 L 31.699219 71.710938 C 31.777344 71.710938 31.839844 71.742188 31.886719 71.789062 C 31.929688 71.835938 31.945312 71.914062 31.929688 71.972656 L 31.839844 72.496094 L 31.714844 73.007812 L 31.667969 73.515625 L 31.605469 74.039062 L 31.5625 74.546875 L 31.5625 75.070312 L 31.53125 75.609375 L 31.53125 76.117188 C 31.53125 76.117188 31.53125 76.132812 31.53125 76.132812 L 31.484375 76.640625 L 31.5 77.148438 L 31.515625 77.671875 L 31.59375 78.167969 L 31.746094 78.644531 L 31.976562 79.089844 L 32.253906 79.492188 L 32.640625 79.785156 L 33.058594 80 L 33.503906 80.046875 L 33.949219 79.984375 L 34.351562 79.785156 L 34.675781 79.476562 L 34.9375 79.074219 L 35.152344 78.644531 L 35.277344 78.183594 L 35.355469 77.164062 L 35.386719 76.609375 L 35.355469 76.070312 L 35.292969 75.515625 C 35.292969 75.515625 35.292969 75.5 35.292969 75.5 L 35.277344 74.960938 L 35.183594 74.421875 L 35.09375 73.898438 L 34.921875 73.390625 L 34.738281 72.914062 L 34.429688 72.496094 L 34.042969 72.113281 C 33.980469 72.050781 33.949219 71.941406 33.996094 71.867188 C 34.027344 71.773438 34.105469 71.726562 34.199219 71.710938 L 34.707031 71.695312 C 34.707031 71.695312 34.722656 71.695312 34.722656 71.695312 L 35.722656 71.726562 L 36.21875 71.695312 C 36.21875 71.695312 36.234375 71.695312 36.234375 71.695312 L 36.742188 71.710938 C 36.820312 71.710938 36.882812 71.757812 36.925781 71.820312 C 36.925781 71.804688 36.941406 71.789062 36.957031 71.789062 C 37.003906 71.742188 37.066406 71.695312 37.128906 71.695312 L 37.714844 71.679688 L 38.886719 71.710938 L 39.457031 71.695312 L 40.613281 71.695312 L 41.167969 71.710938 C 41.167969 71.710938 41.183594 71.710938 41.183594 71.710938 L 42.261719 71.867188 C 42.277344 71.867188 42.277344 71.867188 42.292969 71.867188 L 42.816406 72.019531 C 42.832031 72.019531 42.847656 72.035156 42.847656 72.035156 L 43.34375 72.265625 L 43.835938 72.511719 C 43.851562 72.527344 43.882812 72.542969 43.898438 72.558594 L 44.28125 72.945312 C 44.28125 72.945312 44.296875 72.960938 44.296875 72.976562 L 44.621094 73.40625 C 44.636719 73.421875 44.652344 73.453125 44.652344 73.46875 L 44.820312 73.976562 C 44.835938 74.007812 44.835938 74.023438 44.835938 74.054688 L 44.820312 74.59375 C 44.820312 74.609375 44.820312 74.625 44.820312 74.640625 L 44.683594 75.164062 C 44.683594 75.195312 44.667969 75.207031 44.652344 75.238281 L 44.34375 75.6875 C 44.328125 75.703125 44.3125 75.71875 44.296875 75.734375 L 43.882812 76.070312 L 43.433594 76.394531 C 43.417969 76.410156 43.402344 76.410156 43.402344 76.410156 L 42.910156 76.640625 C 42.894531 76.640625 42.878906 76.65625 42.863281 76.65625 L 42.617188 76.71875 L 42.742188 76.933594 L 43.019531 77.382812 L 43.28125 77.859375 L 43.804688 78.765625 L 44.113281 79.183594 L 44.40625 79.628906 L 44.761719 80.015625 L 44.867188 80.136719 L 44.976562 80 L 45.253906 79.539062 L 45.5 79.058594 L 46.164062 77.535156 L 46.394531 77.027344 L 46.84375 76.011719 L 47.011719 75.484375 C 47.011719 75.484375 47.011719 75.472656 47.011719 75.472656 L 47.226562 74.945312 L 47.691406 73.898438 L 47.890625 73.390625 L 48.058594 72.867188 C 48.058594 72.851562 48.074219 72.835938 48.074219 72.835938 L 48.324219 72.34375 L 48.492188 71.804688 C 48.523438 71.710938 48.601562 71.648438 48.691406 71.648438 L 49.261719 71.621094 L 49.816406 71.527344 L 50.402344 71.464844 C 50.527344 71.449219 50.636719 71.527344 50.652344 71.648438 L 50.773438 72.203125 L 51.035156 73.269531 L 51.222656 73.792969 C 51.222656 73.792969 51.222656 73.808594 51.222656 73.808594 L 51.359375 74.347656 L 51.546875 74.871094 L 51.761719 75.378906 C 51.761719 75.378906 51.761719 75.394531 51.761719 75.394531 L 51.945312 75.917969 L 52.132812 76.425781 L 52.363281 76.933594 L 53.011719 78.488281 L 53.273438 78.96875 L 53.796875 79.96875 Z M 42.199219 74.484375 L 42.125 73.992188 L 41.984375 73.453125 L 41.722656 72.992188 L 41.351562 72.652344 L 40.890625 72.542969 L 40.503906 72.652344 L 40.195312 72.960938 L 39.964844 73.375 L 39.839844 73.851562 L 39.75 74.378906 L 39.640625 75.425781 L 39.609375 75.949219 L 39.609375 76.242188 L 40.289062 76.242188 L 40.796875 76.179688 L 41.277344 76.054688 L 41.660156 75.777344 L 41.96875 75.425781 L 42.109375 74.960938 Z M 49.710938 77.195312 L 49.324219 75.980469 L 49.125 75.5 L 48.863281 75.039062 C 48.863281 75.023438 48.847656 75.023438 48.847656 75.007812 L 48.644531 74.53125 L 48.308594 74.039062 L 48.277344 74.101562 L 48.058594 74.609375 L 47.875 75.117188 L 47.660156 75.625 L 47.460938 76.070312 L 47.320312 76.535156 C 47.320312 76.535156 47.320312 76.550781 47.320312 76.550781 L 47.136719 76.996094 L 47.089844 77.179688 L 47.320312 77.164062 C 47.320312 77.164062 47.335938 77.164062 47.335938 77.164062 L 47.875 77.179688 L 48.398438 77.179688 L 48.925781 77.148438 Z M 62.554688 78.765625 L 62.292969 79.261719 C 62.292969 79.277344 62.277344 79.292969 62.261719 79.292969 L 61.90625 79.722656 C 61.890625 79.738281 61.890625 79.738281 61.875 79.753906 L 61.445312 80.109375 C 61.429688 80.121094 61.429688 80.121094 61.414062 80.136719 L 60.921875 80.414062 C 60.90625 80.414062 60.890625 80.429688 60.890625 80.429688 L 60.367188 80.617188 C 60.367188 80.617188 60.351562 80.617188 60.351562 80.617188 L 59.808594 80.738281 C 59.808594 80.738281 59.796875 80.738281 59.796875 80.738281 L 59.238281 80.816406 C 59.222656 80.816406 59.222656 80.816406 59.210938 80.816406 L 58.082031 80.847656 C 58.082031 80.847656 58.066406 80.847656 58.066406 80.847656 L 57.511719 80.816406 L 56.972656 80.832031 L 56.433594 80.863281 C 56.433594 80.863281 56.417969 80.863281 56.417969 80.863281 L 55.863281 80.847656 L 55.308594 80.847656 L 54.738281 80.816406 C 54.675781 80.816406 54.613281 80.785156 54.566406 80.722656 C 54.519531 80.675781 54.507812 80.601562 54.519531 80.539062 L 54.613281 80.03125 L 54.691406 79.507812 C 54.691406 79.507812 54.691406 79.492188 54.691406 79.492188 L 54.800781 78.96875 L 54.84375 78.445312 L 54.921875 77.90625 L 54.921875 77.382812 L 54.953125 76.828125 L 54.96875 75.761719 L 54.921875 75.222656 L 54.90625 74.667969 L 54.84375 74.128906 L 54.800781 73.574219 L 54.753906 73.050781 L 54.628906 72.527344 L 54.519531 71.972656 C 54.507812 71.898438 54.519531 71.835938 54.566406 71.773438 C 54.613281 71.726562 54.691406 71.695312 54.753906 71.695312 L 55.308594 71.726562 L 55.847656 71.695312 C 55.863281 71.695312 55.863281 71.695312 55.878906 71.695312 L 56.417969 71.726562 L 57.511719 71.679688 C 57.511719 71.679688 57.527344 71.679688 57.527344 71.679688 L 58.082031 71.695312 L 58.636719 71.679688 C 58.652344 71.679688 58.652344 71.679688 58.667969 71.679688 L 59.222656 71.726562 C 59.222656 71.726562 59.238281 71.726562 59.238281 71.726562 L 59.796875 71.820312 C 59.796875 71.820312 59.808594 71.820312 59.808594 71.820312 L 60.351562 71.941406 C 60.367188 71.941406 60.382812 71.957031 60.394531 71.957031 L 60.90625 72.191406 C 60.921875 72.203125 60.9375 72.203125 60.953125 72.21875 L 61.382812 72.589844 C 61.398438 72.605469 61.429688 72.636719 61.429688 72.652344 L 61.691406 73.144531 C 61.707031 73.160156 61.707031 73.191406 61.722656 73.207031 L 61.816406 73.746094 C 61.816406 73.777344 61.816406 73.824219 61.816406 73.851562 L 61.644531 74.421875 C 61.644531 74.453125 61.628906 74.46875 61.613281 74.5 L 61.261719 74.992188 C 61.246094 75.007812 61.230469 75.023438 61.214844 75.039062 L 60.734375 75.425781 C 60.71875 75.441406 60.71875 75.441406 60.703125 75.441406 L 60.351562 75.640625 L 60.6875 75.734375 C 60.703125 75.734375 60.734375 75.746094 60.75 75.746094 L 61.261719 76.039062 C 61.261719 76.039062 61.273438 76.039062 61.273438 76.054688 L 61.753906 76.378906 C 61.769531 76.378906 61.769531 76.394531 61.785156 76.410156 L 62.199219 76.8125 C 62.214844 76.828125 62.230469 76.839844 62.230469 76.855469 L 62.523438 77.367188 C 62.539062 77.394531 62.554688 77.425781 62.554688 77.457031 L 62.617188 78.027344 C 62.617188 78.042969 62.617188 78.058594 62.617188 78.074219 L 62.585938 78.628906 C 62.570312 78.707031 62.570312 78.738281 62.554688 78.765625 Z M 57.296875 74.902344 L 57.3125 75.425781 C 57.3125 75.425781 57.3125 75.441406 57.3125 75.441406 L 57.3125 75.515625 L 57.542969 75.484375 L 58.035156 75.441406 L 58.484375 75.285156 L 58.902344 75.054688 L 59.253906 74.777344 L 59.457031 74.390625 L 59.5625 73.960938 L 59.515625 73.46875 L 59.316406 73.007812 L 59.007812 72.652344 L 58.621094 72.511719 L 58.238281 72.636719 L 57.914062 72.960938 L 57.652344 73.375 L 57.480469 73.851562 L 57.375 74.363281 Z M 59.980469 77.8125 L 59.839844 77.351562 L 59.546875 76.964844 L 59.148438 76.65625 L 58.667969 76.457031 L 58.144531 76.316406 L 57.605469 76.289062 L 57.265625 76.300781 L 57.265625 76.625 L 57.25 77.179688 L 57.265625 77.71875 L 57.296875 78.257812 L 57.296875 78.8125 L 57.328125 79.320312 L 57.527344 79.738281 L 57.867188 80.03125 L 58.316406 80.09375 L 58.792969 79.953125 L 59.210938 79.675781 L 59.53125 79.246094 L 59.808594 78.78125 L 59.980469 78.304688 Z M 69.140625 79.429688 L 69.0625 78.84375 L 68.953125 77.628906 C 68.9375 77.519531 68.863281 77.441406 68.753906 77.425781 C 68.644531 77.410156 68.554688 77.472656 68.507812 77.566406 L 68.292969 78.074219 L 68.042969 78.519531 L 67.722656 78.921875 L 67.367188 79.304688 L 66.949219 79.597656 L 66.503906 79.875 L 66.039062 80.078125 L 65.578125 80.152344 L 65.5625 80.152344 L 65.390625 79.230469 L 65.316406 78.691406 L 65.285156 78.136719 L 65.253906 77.566406 L 65.207031 77.011719 L 65.222656 76.457031 L 65.207031 75.902344 L 65.253906 75.347656 C 65.253906 75.347656 65.253906 75.332031 65.253906 75.332031 L 65.253906 74.777344 L 65.316406 74.238281 L 65.390625 73.683594 L 65.453125 73.128906 L 65.5625 72.574219 L 65.65625 72.035156 C 65.671875 71.972656 65.65625 71.898438 65.609375 71.851562 C 65.5625 71.804688 65.5 71.773438 65.421875 71.773438 L 64.34375 71.773438 L 63.789062 71.742188 C 63.789062 71.742188 63.773438 71.742188 63.773438 71.742188 L 62.679688 71.773438 C 62.617188 71.773438 62.539062 71.804688 62.507812 71.867188 C 62.460938 71.925781 62.445312 71.988281 62.460938 72.050781 L 62.570312 72.558594 L 62.664062 73.082031 L 62.710938 73.621094 L 62.847656 74.699219 L 62.878906 75.222656 L 62.878906 75.761719 C 62.878906 75.761719 62.878906 75.777344 62.878906 75.777344 L 62.910156 76.300781 L 62.910156 76.839844 L 62.863281 77.382812 C 62.863281 77.382812 62.863281 77.394531 62.863281 77.394531 L 62.863281 77.933594 L 62.738281 79 L 62.664062 79.539062 L 62.601562 80.0625 L 62.476562 80.570312 C 62.460938 80.632812 62.476562 80.707031 62.523438 80.769531 C 62.570312 80.832031 62.632812 80.863281 62.710938 80.863281 L 63.234375 80.863281 L 63.773438 80.894531 C 63.773438 80.894531 63.789062 80.894531 63.789062 80.894531 L 64.3125 80.863281 L 65.390625 80.894531 L 66.457031 80.863281 L 66.980469 80.863281 L 67.503906 80.910156 C 67.503906 80.910156 67.519531 80.910156 67.519531 80.910156 L 69.140625 80.910156 C 69.199219 80.910156 69.277344 80.878906 69.308594 80.832031 C 69.355469 80.785156 69.371094 80.707031 69.355469 80.648438 Z M 74.011719 78.84375 C 73.210938 79.292969 71.746094 79.277344 71.761719 77.84375 C 71.777344 75.824219 73.71875 76.8125 73.71875 76.8125 L 73.71875 75.039062 C 73.71875 75.039062 71.945312 76.195312 71.898438 74.300781 C 71.867188 73.097656 73.039062 73.253906 73.597656 73.390625 C 73.964844 73.515625 74.121094 73.867188 74.121094 73.867188 L 74.859375 72.773438 C 74.503906 72.945312 74.058594 72.480469 74.058594 72.480469 C 72.902344 71.375 70.574219 71.480469 69.878906 73.175781 C 69.109375 75.007812 70.542969 76.132812 70.542969 76.132812 C 70.542969 76.132812 69.433594 76.71875 69.371094 78.042969 C 69.324219 79.136719 69.878906 80.664062 72.039062 80.878906 C 73.425781 81.015625 74.273438 80.230469 74.707031 79.660156 C 74.753906 79.597656 74.796875 79.523438 74.84375 79.460938 C 75.183594 79.042969 75.570312 78.984375 75.570312 78.984375 L 74.414062 78.105469 C 74.273438 78.613281 74.105469 78.78125 74.011719 78.84375 Z M 74.011719 78.84375 " fill-opacity="1" fill-rule="nonzero"></path></g></svg>