<svg xmlns="http://www.w3.org/2000/svg" xmlns:xlink="http://www.w3.org/1999/xlink" width="128" viewBox="0 0 96 95.999999" height="128" preserveAspectRatio="xMidYMid meet"><defs><clipPath id="7c33ab7e87"><path d="M 9.601562 9.601562 L 86.101562 9.601562 L 86.101562 86.101562 L 9.601562 86.101562 Z M 9.601562 9.601562 " clip-rule="nonzero"></path></clipPath></defs><path fill="#ff7324" d="M 23.929688 60.949219 L 24.710938 62.195312 C 24.910156 62.511719 24.957031 62.800781 24.863281 63.085938 C 24.765625 63.382812 24.59375 63.605469 24.332031 63.765625 C 24.03125 63.957031 23.742188 64.015625 23.445312 63.945312 C 23.148438 63.871094 22.910156 63.6875 22.714844 63.378906 L 21.964844 62.183594 Z M 23.304688 65.011719 C 23.46875 65.050781 23.628906 65.070312 23.789062 65.070312 C 24.179688 65.070312 24.566406 64.957031 24.933594 64.722656 C 25.402344 64.429688 25.722656 64.003906 25.886719 63.457031 C 26.050781 62.902344 25.925781 62.285156 25.507812 61.621094 L 24.164062 59.480469 L 18.226562 63.210938 L 18.824219 64.15625 L 21.136719 62.703125 L 21.933594 63.96875 C 22.285156 64.527344 22.746094 64.878906 23.304688 65.011719 " fill-opacity="1" fill-rule="nonzero"></path><path fill="#ff7324" d="M 23.40625 68.710938 L 27.808594 64.644531 L 27.039062 63.804688 L 21.886719 68.5625 L 24.773438 71.6875 L 25.519531 70.996094 L 23.40625 68.710938 " fill-opacity="1" fill-rule="nonzero"></path><path fill="#ff7324" d="M 30.769531 69.40625 L 29.855469 72.035156 L 28.492188 71.003906 Z M 31.269531 67.921875 L 25.226562 72.144531 L 26.023438 72.742188 L 27.691406 71.535156 L 29.523438 72.921875 L 28.878906 74.898438 L 29.796875 75.59375 L 32.191406 68.617188 L 31.269531 67.921875 " fill-opacity="1" fill-rule="nonzero"></path><path fill="#ff7324" d="M 35.980469 70.738281 C 35.359375 70.433594 34.761719 70.339844 34.203125 70.457031 C 33.632812 70.582031 33.210938 70.917969 32.945312 71.460938 C 32.785156 71.789062 32.71875 72.121094 32.742188 72.449219 C 32.765625 72.773438 32.859375 73.058594 33.015625 73.289062 C 33.164062 73.507812 33.386719 73.742188 33.667969 73.984375 L 34.734375 74.875 C 34.929688 75.039062 35.078125 75.234375 35.175781 75.460938 C 35.265625 75.671875 35.257812 75.882812 35.152344 76.105469 C 35 76.410156 34.78125 76.59375 34.476562 76.667969 C 34.171875 76.746094 33.789062 76.671875 33.34375 76.453125 C 32.476562 76.03125 32.117188 75.386719 32.238281 74.484375 L 32.253906 74.363281 L 31.222656 74.121094 L 31.207031 74.273438 C 31.039062 75.675781 31.613281 76.710938 32.917969 77.351562 C 33.421875 77.597656 33.894531 77.71875 34.335938 77.71875 C 34.535156 77.71875 34.730469 77.695312 34.914062 77.640625 C 35.507812 77.476562 35.949219 77.109375 36.222656 76.550781 C 36.675781 75.625 36.417969 74.75 35.453125 73.953125 L 34.453125 73.136719 C 33.925781 72.699219 33.757812 72.300781 33.949219 71.914062 C 34.085938 71.632812 34.296875 71.476562 34.597656 71.433594 C 34.910156 71.390625 35.226562 71.441406 35.527344 71.59375 C 35.835938 71.742188 36.089844 71.972656 36.285156 72.277344 C 36.472656 72.574219 36.519531 72.890625 36.433594 73.25 L 36.402344 73.394531 L 37.476562 73.574219 L 37.492188 73.429688 C 37.640625 72.207031 37.132812 71.300781 35.980469 70.738281 " fill-opacity="1" fill-rule="nonzero"></path><path fill="#ff7324" d="M 42.832031 73.308594 L 38.042969 71.925781 L 37.761719 72.902344 L 39.617188 73.4375 L 37.957031 79.195312 L 39.03125 79.507812 L 40.691406 73.746094 L 42.550781 74.28125 L 42.832031 73.308594 " fill-opacity="1" fill-rule="nonzero"></path><path fill="#ff7324" d="M 42.113281 80.1875 L 43.21875 80.359375 L 44.296875 73.433594 L 43.191406 73.261719 L 42.113281 80.1875 " fill-opacity="1" fill-rule="nonzero"></path><path fill="#ff7324" d="M 47.800781 74.523438 C 47.808594 74.523438 47.816406 74.523438 47.824219 74.523438 C 48.566406 74.53125 49.054688 75.03125 49.316406 76.046875 L 49.347656 76.171875 L 50.414062 75.972656 L 50.382812 75.832031 C 50.027344 74.324219 49.171875 73.546875 47.84375 73.53125 C 46.949219 73.519531 46.226562 73.847656 45.6875 74.5 C 45.152344 75.144531 44.878906 76.011719 44.863281 77.074219 C 44.851562 78.101562 45.09375 78.984375 45.585938 79.699219 C 46.085938 80.429688 46.792969 80.804688 47.6875 80.816406 C 47.703125 80.816406 47.71875 80.816406 47.734375 80.816406 C 49.070312 80.816406 49.949219 80.042969 50.347656 78.515625 L 50.382812 78.378906 L 49.347656 78.132812 L 49.3125 78.261719 C 49.039062 79.3125 48.523438 79.824219 47.742188 79.824219 C 47.734375 79.824219 47.730469 79.824219 47.722656 79.824219 C 47.210938 79.820312 46.816406 79.589844 46.511719 79.125 C 46.199219 78.648438 46.046875 78.003906 46.054688 77.210938 C 46.066406 76.339844 46.234375 75.660156 46.550781 75.191406 C 46.851562 74.742188 47.261719 74.523438 47.800781 74.523438 " fill-opacity="1" fill-rule="nonzero"></path><path fill="#ff7324" d="M 59.824219 74.078125 L 57.269531 75.011719 L 56.636719 73.273438 L 59.71875 72.148438 L 59.371094 71.195312 L 55.234375 72.699219 L 57.636719 79.285156 L 58.6875 78.902344 L 57.597656 75.910156 L 60.152344 74.976562 L 59.824219 74.078125 " fill-opacity="1" fill-rule="nonzero"></path><path fill="#ff7324" d="M 64.144531 71.601562 C 64.085938 71.890625 63.871094 72.148438 63.507812 72.363281 L 62.117188 73.203125 L 61.027344 71.390625 L 62.503906 70.5 C 62.792969 70.324219 63.070312 70.257812 63.351562 70.296875 C 63.617188 70.335938 63.828125 70.484375 63.992188 70.753906 C 64.15625 71.03125 64.207031 71.308594 64.144531 71.601562 Z M 65.257812 71.292969 C 65.253906 70.886719 65.152344 70.515625 64.957031 70.191406 C 64.699219 69.761719 64.300781 69.460938 63.769531 69.292969 C 63.230469 69.125 62.628906 69.238281 61.980469 69.628906 L 59.589844 71.070312 L 63.210938 77.074219 L 64.121094 76.523438 L 62.613281 74.027344 L 64.070312 73.148438 L 66.640625 75.003906 L 67.652344 74.394531 L 64.863281 72.371094 C 65.128906 72.027344 65.261719 71.664062 65.257812 71.292969 " fill-opacity="1" fill-rule="nonzero"></path><path fill="#ff7324" d="M 69.273438 71.695312 L 67.820312 70.109375 L 69.824219 68.277344 L 69.175781 67.566406 L 67.171875 69.398438 L 65.914062 68.023438 L 68.4375 65.714844 L 67.75 64.964844 L 64.402344 68.027344 L 69.132812 73.199219 L 72.550781 70.074219 L 71.863281 69.324219 L 69.273438 71.695312 " fill-opacity="1" fill-rule="nonzero"></path><path fill="#ff7324" d="M 75.648438 64.410156 L 73.550781 67.226562 L 71.824219 65.945312 L 73.445312 63.765625 L 72.671875 63.191406 L 71.054688 65.371094 L 69.558594 64.257812 L 71.597656 61.515625 L 70.78125 60.90625 L 68.074219 64.550781 L 73.699219 68.734375 L 76.464844 65.015625 L 75.648438 64.410156 " fill-opacity="1" fill-rule="nonzero"></path><g clip-path="url(#7c33ab7e87)"><path fill="#ff7324" d="M 84.722656 47.851562 C 84.722656 68.179688 68.179688 84.722656 47.851562 84.722656 C 27.519531 84.722656 10.976562 68.179688 10.976562 47.851562 C 10.976562 27.519531 27.519531 10.976562 47.851562 10.976562 C 68.179688 10.976562 84.722656 27.519531 84.722656 47.851562 Z M 83.09375 32.960938 C 81.167969 28.40625 78.410156 24.316406 74.898438 20.804688 C 71.382812 17.289062 67.292969 14.53125 62.738281 12.605469 C 58.023438 10.613281 53.011719 9.601562 47.851562 9.601562 C 42.6875 9.601562 37.675781 10.613281 32.960938 12.605469 C 28.40625 14.53125 24.316406 17.289062 20.804688 20.804688 C 17.289062 24.316406 14.53125 28.40625 12.605469 32.960938 C 10.613281 37.675781 9.601562 42.6875 9.601562 47.851562 C 9.601562 53.011719 10.613281 58.023438 12.605469 62.738281 C 14.53125 67.292969 17.289062 71.382812 20.804688 74.898438 C 24.316406 78.410156 28.40625 81.167969 32.960938 83.09375 C 37.675781 85.089844 42.6875 86.101562 47.851562 86.101562 C 53.011719 86.101562 58.023438 85.089844 62.738281 83.09375 C 67.292969 81.167969 71.382812 78.410156 74.898438 74.898438 C 78.410156 71.382812 81.167969 67.292969 83.09375 62.738281 C 85.089844 58.023438 86.101562 53.011719 86.101562 47.851562 C 86.101562 42.6875 85.089844 37.675781 83.09375 32.960938 " fill-opacity="1" fill-rule="nonzero"></path></g><path fill="#86ba4c" d="M 51.4375 23.714844 L 51.4375 25.925781 L 56.875 32.304688 L 56.875 39.230469 C 56.875 40.679688 56.226562 41.851562 54.777344 41.851562 C 56.226562 41.851562 56.875 43.027344 56.875 44.476562 L 56.875 50.574219 C 56.875 52.023438 56.226562 53.199219 54.777344 53.199219 C 56.226562 53.199219 56.875 54.371094 56.875 55.820312 L 56.875 61.917969 C 56.875 63.367188 55.699219 64.542969 54.25 64.542969 L 41.449219 64.542969 C 40 64.542969 38.824219 63.367188 38.824219 61.917969 L 38.824219 55.820312 C 38.824219 54.371094 39.371094 53.199219 40.820312 53.199219 C 39.371094 53.199219 38.824219 52.023438 38.824219 50.574219 L 38.824219 44.476562 C 38.824219 43.027344 39.371094 41.851562 40.820312 41.851562 C 39.371094 41.851562 38.824219 40.679688 38.824219 39.230469 L 38.824219 32.304688 L 44.265625 25.925781 L 44.265625 23.714844 L 51.4375 23.714844 " fill-opacity="1" fill-rule="nonzero"></path><path fill="#ff7324" d="M 43.789062 23.121094 L 51.910156 23.121094 L 51.910156 19.800781 L 43.789062 19.800781 Z M 52.503906 24.304688 L 43.199219 24.304688 C 42.871094 24.304688 42.605469 24.039062 42.605469 23.714844 L 42.605469 19.210938 C 42.605469 18.882812 42.871094 18.617188 43.199219 18.617188 L 52.503906 18.617188 C 52.828125 18.617188 53.09375 18.882812 53.09375 19.210938 L 53.09375 23.714844 C 53.09375 24.039062 52.828125 24.304688 52.503906 24.304688 " fill-opacity="1" fill-rule="nonzero"></path><path fill="#ff7324" d="M 54.25 65.132812 L 41.449219 65.132812 C 39.675781 65.132812 38.234375 63.691406 38.234375 61.917969 L 38.234375 55.820312 C 38.234375 54.640625 38.566406 53.742188 39.167969 53.199219 C 38.566406 52.65625 38.234375 51.753906 38.234375 50.574219 L 38.234375 44.476562 C 38.234375 43.296875 38.566406 42.398438 39.167969 41.851562 C 38.566406 41.308594 38.234375 40.410156 38.234375 39.230469 L 38.234375 32.304688 C 38.234375 32.164062 38.285156 32.027344 38.375 31.921875 L 43.671875 25.707031 L 43.671875 23.714844 C 43.671875 23.386719 43.9375 23.125 44.265625 23.125 C 44.589844 23.125 44.855469 23.386719 44.855469 23.714844 L 44.855469 25.925781 C 44.855469 26.066406 44.804688 26.199219 44.714844 26.308594 L 39.414062 32.523438 L 39.414062 39.230469 C 39.414062 40.578125 39.886719 41.261719 40.820312 41.261719 C 41.144531 41.261719 41.410156 41.527344 41.410156 41.851562 C 41.410156 42.179688 41.144531 42.445312 40.820312 42.445312 C 39.886719 42.445312 39.414062 43.128906 39.414062 44.476562 L 39.414062 50.574219 C 39.414062 51.921875 39.886719 52.605469 40.820312 52.605469 C 41.144531 52.605469 41.410156 52.871094 41.410156 53.199219 C 41.410156 53.523438 41.144531 53.789062 40.820312 53.789062 C 39.886719 53.789062 39.414062 54.472656 39.414062 55.820312 L 39.414062 61.917969 C 39.414062 63.039062 40.328125 63.953125 41.449219 63.953125 L 54.25 63.953125 C 55.371094 63.953125 56.285156 63.039062 56.285156 61.917969 L 56.285156 55.820312 C 56.285156 55.0625 56.089844 53.789062 54.777344 53.789062 C 54.449219 53.789062 54.183594 53.523438 54.183594 53.199219 C 54.183594 52.871094 54.449219 52.605469 54.777344 52.605469 C 56.089844 52.605469 56.285156 51.332031 56.285156 50.574219 L 56.285156 44.476562 C 56.285156 43.71875 56.089844 42.445312 54.777344 42.445312 C 54.449219 42.445312 54.183594 42.179688 54.183594 41.851562 C 54.183594 41.527344 54.449219 41.261719 54.777344 41.261719 C 56.089844 41.261719 56.285156 39.988281 56.285156 39.230469 L 56.285156 32.523438 L 50.984375 26.308594 C 50.894531 26.199219 50.84375 26.066406 50.84375 25.925781 L 50.84375 23.714844 C 50.84375 23.386719 51.109375 23.125 51.4375 23.125 C 51.761719 23.125 52.027344 23.386719 52.027344 23.714844 L 52.027344 25.707031 L 57.324219 31.921875 C 57.414062 32.027344 57.464844 32.164062 57.464844 32.304688 L 57.464844 39.230469 C 57.464844 40.386719 57.09375 41.300781 56.453125 41.851562 C 57.09375 42.40625 57.464844 43.320312 57.464844 44.476562 L 57.464844 50.574219 C 57.464844 51.730469 57.09375 52.644531 56.453125 53.199219 C 57.09375 53.75 57.464844 54.664062 57.464844 55.820312 L 57.464844 61.917969 C 57.464844 63.691406 56.023438 65.132812 54.25 65.132812 " fill-opacity="1" fill-rule="nonzero"></path><path fill="#ff7324" d="M 54.777344 42.445312 L 47.820312 42.445312 C 47.492188 42.445312 47.230469 42.179688 47.230469 41.851562 C 47.230469 41.527344 47.492188 41.261719 47.820312 41.261719 L 54.777344 41.261719 C 55.101562 41.261719 55.367188 41.527344 55.367188 41.851562 C 55.367188 42.179688 55.101562 42.445312 54.777344 42.445312 " fill-opacity="1" fill-rule="nonzero"></path><path fill="#ff7324" d="M 47.746094 53.789062 L 40.820312 53.789062 C 40.492188 53.789062 40.226562 53.523438 40.226562 53.199219 C 40.226562 52.871094 40.492188 52.605469 40.820312 52.605469 L 47.746094 52.605469 C 48.070312 52.605469 48.335938 52.871094 48.335938 53.199219 C 48.335938 53.523438 48.070312 53.789062 47.746094 53.789062 " fill-opacity="1" fill-rule="nonzero"></path><path fill="#ff7324" d="M 47.820312 32.894531 L 38.824219 32.894531 C 38.5 32.894531 38.234375 32.628906 38.234375 32.304688 C 38.234375 31.976562 38.5 31.714844 38.824219 31.714844 L 47.820312 31.714844 C 48.144531 31.714844 48.410156 31.976562 48.410156 32.304688 C 48.410156 32.628906 48.144531 32.894531 47.820312 32.894531 " fill-opacity="1" fill-rule="nonzero"></path><path fill="#86ba4c" d="M 19.6875 45.570312 C 20.507812 45.300781 21.601562 44.792969 22.515625 43.789062 C 25.007812 41.054688 23.175781 35.328125 23.175781 35.328125 C 23.175781 35.328125 19.421875 36.589844 18.3125 38.632812 C 16.84375 41.328125 17.839844 44.105469 18.019531 44.578125 L 19.6875 45.570312 " fill-opacity="1" fill-rule="nonzero"></path><path fill="#ff7324" d="M 19.375 48.746094 C 19.34375 48.71875 19.320312 48.683594 19.296875 48.648438 C 18.121094 46.546875 18.070312 44.042969 19.152344 41.410156 C 19.984375 39.386719 21.230469 37.871094 21.640625 37.460938 C 21.820312 37.277344 22.113281 37.277344 22.292969 37.457031 C 22.472656 37.636719 22.472656 37.925781 22.292969 38.105469 C 21.234375 39.171875 17.753906 44.011719 20.097656 48.199219 C 20.222656 48.417969 20.144531 48.699219 19.921875 48.824219 C 19.738281 48.925781 19.515625 48.890625 19.375 48.746094 " fill-opacity="1" fill-rule="nonzero"></path><path fill="#ff7324" d="M 22.867188 35.933594 C 21.867188 36.332031 19.507812 37.394531 18.714844 38.851562 C 17.5 41.085938 18.097656 43.410156 18.394531 44.269531 L 19.742188 45.066406 C 20.71875 44.714844 21.535156 44.179688 22.175781 43.480469 C 24.066406 41.40625 23.222656 37.3125 22.867188 35.933594 Z M 17.695312 44.90625 C 17.648438 44.859375 17.613281 44.804688 17.589844 44.742188 C 17.289062 43.945312 16.425781 41.136719 17.910156 38.414062 C 19.09375 36.238281 22.867188 34.949219 23.027344 34.894531 C 23.144531 34.855469 23.273438 34.863281 23.382812 34.917969 C 23.492188 34.976562 23.574219 35.074219 23.613281 35.191406 C 23.691406 35.433594 25.496094 41.199219 22.855469 44.101562 C 22.066406 44.964844 21.050781 45.605469 19.832031 46.003906 C 19.707031 46.046875 19.570312 46.03125 19.457031 45.964844 L 17.785156 44.976562 C 17.753906 44.957031 17.722656 44.933594 17.695312 44.90625 " fill-opacity="1" fill-rule="nonzero"></path><path fill="#86ba4c" d="M 76.011719 45.570312 C 75.191406 45.300781 74.097656 44.792969 73.183594 43.789062 C 70.691406 41.054688 72.523438 35.328125 72.523438 35.328125 C 72.523438 35.328125 76.277344 36.589844 77.386719 38.632812 C 78.855469 41.328125 77.859375 44.105469 77.679688 44.578125 L 76.011719 45.570312 " fill-opacity="1" fill-rule="nonzero"></path><path fill="#ff7324" d="M 76.328125 48.746094 C 76.355469 48.71875 76.382812 48.683594 76.402344 48.648438 C 77.578125 46.546875 77.628906 44.042969 76.546875 41.410156 C 75.714844 39.386719 74.46875 37.871094 74.058594 37.460938 C 73.878906 37.277344 73.589844 37.277344 73.410156 37.457031 C 73.230469 37.636719 73.226562 37.925781 73.40625 38.105469 C 74.46875 39.171875 77.949219 44.011719 75.601562 48.199219 C 75.476562 48.417969 75.554688 48.699219 75.777344 48.824219 C 75.960938 48.925781 76.183594 48.890625 76.328125 48.746094 " fill-opacity="1" fill-rule="nonzero"></path><path fill="#ff7324" d="M 73.523438 43.480469 C 74.164062 44.179688 74.980469 44.714844 75.960938 45.066406 L 77.304688 44.269531 C 77.601562 43.410156 78.199219 41.085938 76.984375 38.851562 C 76.191406 37.394531 73.832031 36.332031 72.832031 35.933594 C 72.476562 37.3125 71.636719 41.40625 73.523438 43.480469 Z M 77.914062 44.976562 L 76.246094 45.964844 C 76.128906 46.03125 75.992188 46.046875 75.867188 46.003906 C 74.648438 45.605469 73.632812 44.964844 72.847656 44.101562 C 70.203125 41.199219 72.007812 35.433594 72.085938 35.191406 C 72.125 35.074219 72.207031 34.976562 72.316406 34.917969 C 72.425781 34.863281 72.554688 34.855469 72.671875 34.894531 C 72.832031 34.949219 76.605469 36.238281 77.789062 38.414062 C 79.273438 41.136719 78.410156 43.945312 78.109375 44.742188 C 78.085938 44.804688 78.050781 44.859375 78.003906 44.90625 C 77.976562 44.933594 77.949219 44.957031 77.914062 44.976562 " fill-opacity="1" fill-rule="nonzero"></path></svg>